<svg width="25" height="25" viewBox="0 0 25 25" fill="none" xmlns="http://www.w3.org/2000/svg">
<path fill-rule="evenodd" clip-rule="evenodd" d="M6.80606 11.0023C6.50977 9.52083 8.18876 8.73072 9.27516 8.03937C9.86775 7.64431 9.96651 7.05173 9.76898 6.45914C9.1764 4.78015 8.08999 3.29869 7.39864 1.61969C7.29988 1.3234 7.00359 1.12587 6.70729 1.02711C3.84313 0.730817 1.76908 2.90363 1.1765 5.57026C-0.601256 13.4714 11.448 25.5206 19.4479 23.8416C22.1145 23.2491 24.2873 21.175 23.991 18.3108C23.8923 18.0146 23.6947 17.7183 23.3984 17.6195C21.7195 16.9281 20.238 15.8417 18.559 15.2492C17.9664 15.0516 17.3738 15.1504 16.9788 15.743C16.2874 16.8294 15.4973 18.5084 14.0158 18.2121C11.448 17.7183 7.20111 13.4714 6.80606 11.0023Z" stroke="#8F5455"/>
</svg>
