<svg width="26" height="26" viewBox="0 0 26 26" fill="none" xmlns="http://www.w3.org/2000/svg">
<path fill-rule="evenodd" clip-rule="evenodd" d="M7.05849 11.6682C6.74932 10.1922 8.50131 9.40496 9.63495 8.71615C10.2533 8.32254 10.3564 7.73214 10.1502 7.14173C9.53189 5.4689 8.39825 3.99288 7.67684 2.32006C7.57379 2.02485 7.26461 1.82805 6.95544 1.72965C3.96675 1.43444 1.80252 3.59927 1.18417 6.25611C-0.670876 14.1282 11.9022 26.1332 20.25 24.4604C23.0325 23.87 25.2998 21.8035 24.9906 18.9499C24.8876 18.6547 24.6815 18.3595 24.3723 18.2611C22.6203 17.5723 21.0744 16.4899 19.3224 15.8995C18.7041 15.7027 18.0857 15.8011 17.6735 16.3915C16.9521 17.4739 16.1276 19.1467 14.5817 18.8515C11.9022 18.3595 7.47073 14.1282 7.05849 11.6682Z" stroke="black" stroke-width="1.5"/>
</svg>
