<svg width="27" height="27" viewBox="0 0 27 27" fill="none" xmlns="http://www.w3.org/2000/svg">
<path d="M12.3951 1C6.10614 1 1 6.10611 1 12.3951C1 18.6841 6.10614 23.7902 12.3951 23.7902C15.4106 23.7902 18.1557 22.6271 20.1948 20.7117L25.364 25.8924C25.5075 26.0359 25.7488 26.0359 25.8923 25.8924C26.0359 25.7488 26.0359 25.519 25.8923 25.3754L20.7002 20.1833C22.6111 18.145 23.7902 15.4066 23.7902 12.3951C23.7902 6.10611 18.6841 1 12.3951 1ZM12.3951 1.73516C18.2867 1.73516 23.0551 6.50344 23.0551 12.3951C23.0551 18.2868 18.2867 23.0551 12.3951 23.0551C6.50346 23.0551 1.73515 18.2868 1.73515 12.3951C1.73515 6.50344 6.50346 1.73516 12.3951 1.73516Z" fill="white" stroke="white" stroke-width="0.5"/>
<line x1="12.5601" y1="7" x2="12.5601" y2="18" stroke="white"/>
<line x1="7" y1="12.4399" x2="18" y2="12.4399" stroke="white"/>
</svg>
