<svg width="90" height="60" viewBox="0 0 90 60" fill="none" xmlns="http://www.w3.org/2000/svg">
<path d="M90 0H15.3V7.6H7.7V15.2H0V59.3H74.7V51.7H82.3V44.1H90V0ZM73.8 58.5H0.9V16.2H73.8V58.5ZM81.4 50.8H74.7V15.3H8.6V8.6H81.5V50.8H81.4ZM89.1 43.2H82.4V7.6H16.2V0.9H89.1V43.2ZM38.9 20.4C38.6 20.4 38.4 20.6 38.4 20.9V54.2C38.4 54.5 38.6 54.7 38.9 54.7C39.2 54.7 39.4 54.5 39.4 54.2V20.9C39.3 20.6 39.1 20.4 38.9 20.4ZM62.3 27.9H70.7V19.7H62.3V27.9ZM63.2 20.6H69.8V26.9H63.2V20.6ZM67.5 38.6H43.1C42.8 38.6 42.6 38.8 42.6 39.1C42.6 39.4 42.8 39.6 43.1 39.6H67.5C67.8 39.6 68 39.4 68 39.1C68 38.8 67.8 38.6 67.5 38.6ZM67.5 47.8H43.1C42.8 47.8 42.6 48 42.6 48.3C42.6 48.6 42.8 48.8 43.1 48.8H67.5C67.8 48.8 68 48.6 68 48.3C68 48 67.8 47.8 67.5 47.8Z" fill="black"/>
</svg>
