<svg width="22" height="33" viewBox="0 0 22 33" fill="none" xmlns="http://www.w3.org/2000/svg">
<path d="M10.8903 32.3196L10.9779 32.4857L11.0668 32.3203C11.4521 31.6043 12.0207 30.6021 12.6945 29.4148C13.9053 27.2809 15.4556 24.5491 16.8901 21.8049C18.008 19.6665 19.0593 17.5141 19.8313 15.6195C20.6016 13.7292 21.1 12.0815 21.1 10.9582C21.1 5.39343 16.5534 0.9 10.9788 0.9C5.40356 0.9 0.9 5.39398 0.9 10.9582C0.9 12.0815 1.39839 13.7292 2.168 15.6194C2.93936 17.514 3.9893 19.6664 5.10454 21.8048C6.21993 23.9436 7.40155 26.0701 8.4367 27.9129C8.66721 28.3233 8.89039 28.7195 9.10394 29.0986C9.84993 30.4229 10.4783 31.5384 10.8903 32.3196ZM20.1781 10.9582C20.1781 11.9122 19.7789 13.3136 19.1262 14.9683C18.475 16.6193 17.577 18.5097 16.5904 20.4365C15.0496 23.4457 13.2955 26.5383 11.933 28.9405C11.5865 29.5515 11.2653 30.1178 10.9794 30.6267C10.6133 29.9657 10.1864 29.2081 9.72075 28.3817C8.4176 26.0689 6.81085 23.2174 5.38302 20.4364C4.39373 18.5095 3.49172 16.6191 2.83726 14.9682C2.18126 13.3134 1.77941 11.9121 1.77941 10.9582C1.77941 5.88621 5.8958 1.778 10.9788 1.778C16.0617 1.778 20.1781 5.88621 20.1781 10.9582ZM15.4524 10.9582C15.4524 8.52912 13.4535 6.53591 10.9788 6.53591C8.54582 6.53591 6.54756 8.52975 6.54756 10.9582C6.54756 13.4284 8.54518 15.4228 10.9788 15.4228C13.4542 15.4228 15.4524 13.429 15.4524 10.9582ZM10.9788 7.41392C12.9635 7.41392 14.573 8.9811 14.573 10.9582C14.573 12.9368 12.962 14.5448 10.9788 14.5448C9.0388 14.5448 7.42696 12.9375 7.42696 10.9582C7.42696 8.98036 9.03729 7.41392 10.9788 7.41392Z" fill="black" stroke="black" stroke-width="0.2"/>
</svg>
