<svg width="16" height="25" viewBox="0 0 16 25" fill="none" xmlns="http://www.w3.org/2000/svg">
<path fill-rule="evenodd" clip-rule="evenodd" d="M8.33898 24C9.93169 21.0393 15.7092 11.565 15.7092 8.32385C15.7092 4.27236 12.3988 1 8.33898 1C4.27912 1 1 4.27236 1 8.32385C1 11.565 6.77749 21.0393 8.33898 24ZM8.33898 22.9404C10.4001 19.2629 15.1783 11.1911 15.1783 8.32385C15.1783 4.55285 12.1178 1.49864 8.33898 1.49864C4.56019 1.49864 1.49968 4.55285 1.49968 8.32385C1.49968 11.1911 6.30905 19.2629 8.33898 22.9404ZM8.33898 5.14499C10.1191 5.14499 11.5556 6.57859 11.5556 8.32385C11.5556 10.1003 10.1191 11.5339 8.33898 11.5339C6.59012 11.5339 5.15355 10.1003 5.15355 8.32385C5.15355 6.57859 6.59012 5.14499 8.33898 5.14499ZM8.33898 5.64363C9.83801 5.64363 11.056 6.82791 11.056 8.32385C11.056 9.81978 9.83801 11.0352 8.33898 11.0352C6.87118 11.0352 5.65323 9.81978 5.65323 8.32385C5.65323 6.82791 6.87118 5.64363 8.33898 5.64363Z" fill="#8F5455" stroke="#8F5455" stroke-width="0.5"/>
</svg>
