<svg width="18" height="20" viewBox="0 0 18 20" fill="none" xmlns="http://www.w3.org/2000/svg">
<path d="M8.65078 10.1323C11.455 10.1323 13.7301 7.85714 13.7301 5.05291C13.7301 2.24868 11.455 0 8.65078 0C5.84654 0 3.57141 2.27513 3.57141 5.07936C3.57141 7.8836 5.84654 10.1323 8.65078 10.1323ZM8.65078 0.978836C10.8995 0.978836 12.7248 2.80423 12.7248 5.05291C12.7248 7.30159 10.8995 9.12698 8.65078 9.12698C6.4021 9.12698 4.5767 7.30159 4.5767 5.05291C4.5767 2.80423 6.4021 0.978836 8.65078 0.978836Z" fill="#8F5455"/>
<path d="M8.65079 11.349C8.09524 11.349 7.53968 11.4019 7.01058 11.5078C5.07936 11.8781 3.33333 12.9099 2.06349 14.3914C0.740741 15.9522 0 17.9363 0 19.9998H0.978836C0.978836 18.1744 1.64021 16.4284 2.80423 15.0263C3.9418 13.7035 5.47619 12.8041 7.19577 12.4601C7.67196 12.3808 8.1746 12.3279 8.65079 12.3279C12.8836 12.3279 16.3227 15.767 16.3227 19.9998H17.328C17.328 15.2379 13.4392 11.349 8.65079 11.349Z" fill="#8F5455"/>
</svg>
