<svg width="60" height="52" viewBox="0 0 60 52" fill="none" xmlns="http://www.w3.org/2000/svg">
<path d="M11.7962 1.00422C12.1059 1.0427 12.36 1.33938 12.3479 1.64841V11.6437C12.3479 14.5339 10.1368 16.9321 7.30439 17.2465V23.5911C8.73815 23.8833 9.82613 25.1319 9.82613 26.6366V47.8765C9.82613 49.5961 8.40935 51 6.67396 51C4.93856 51 3.52179 49.5961 3.52179 47.8765V26.6366C3.52179 25.1319 4.60976 23.8833 6.04352 23.5911V17.2465C3.21111 16.9321 1.00005 14.5339 1.00005 11.6437V1.64841C0.995635 1.31837 1.29738 1.01478 1.63048 1.01478C1.96358 1.01478 2.26563 1.31837 2.26092 1.64841V11.6437C2.26092 13.863 3.89414 15.6765 6.04352 15.9775V1.64841C6.02928 1.28719 6.39084 0.958797 6.75276 1.00422C7.06244 1.0427 7.31652 1.33938 7.30439 1.64841V15.9775C9.45378 15.6765 11.087 13.863 11.087 11.6437V1.64841C11.0728 1.28719 11.4343 0.958797 11.7962 1.00422ZM53.3261 1.0237C54.9743 1.0237 56.4291 2.00486 57.4239 3.48347C58.4187 4.96208 59 6.96219 59 9.14485C59 11.3275 58.4187 13.3081 57.4239 14.7867C56.5574 16.0746 55.3449 17.0097 53.9565 17.2269V23.5911C55.3903 23.8833 56.4783 25.1319 56.4783 26.6366V47.8765C56.4783 49.5961 55.0615 51 53.3261 51C51.5907 51 50.1739 49.5961 50.1739 47.8765V26.6366C50.1739 25.1319 51.2619 23.8833 52.6957 23.5911V17.2269C51.3073 17.0097 50.0948 16.0746 49.2283 14.7867C48.2335 13.3081 47.6522 11.3275 47.6522 9.14485C47.6522 6.96219 48.2335 4.96208 49.2283 3.48347C50.2231 2.00486 51.6779 1.0237 53.3261 1.0237ZM53.3261 2.27311C52.1889 2.27311 51.1227 2.95172 50.2921 4.18626C49.4615 5.4208 48.9131 7.18727 48.9131 9.14485C48.9131 11.1024 49.4615 12.8493 50.2921 14.0839C51.1227 15.3185 52.1889 16.0166 53.3261 16.0166C54.4632 16.0166 55.5295 15.3185 56.3601 14.0839C57.1907 12.8493 57.7391 11.1024 57.7391 9.14485C57.7391 7.18727 57.1907 5.4208 56.3601 4.18626C55.5295 2.95172 54.4632 2.27311 53.3261 2.27311ZM30 8.52014C39.3934 8.52014 47.0218 16.0792 47.0218 25.3872C47.0218 34.6951 39.3934 42.2542 30 42.2542C20.6067 42.2542 12.9783 34.6951 12.9783 25.3872C12.9783 16.0792 20.6067 8.52014 30 8.52014ZM30 9.76955C21.2881 9.76955 14.2392 16.7544 14.2392 25.3872C14.2392 34.0199 21.2881 41.0047 30 41.0047C38.712 41.0047 45.7609 34.0199 45.7609 25.3872C45.7609 16.7544 38.712 9.76955 30 9.76955ZM30 16.6413C34.8671 16.6413 38.8261 20.5644 38.8261 25.3872C38.8261 30.2099 34.8671 34.133 30 34.133C25.133 34.133 21.1739 30.2099 21.1739 25.3872C21.1739 20.5644 25.133 16.6413 30 16.6413ZM30 17.8907C25.8144 17.8907 22.4348 21.2396 22.4348 25.3872C22.4348 29.5347 25.8144 32.8836 30 32.8836C34.1856 32.8836 37.5652 29.5347 37.5652 25.3872C37.5652 21.2396 34.1856 17.8907 30 17.8907ZM53.3261 24.7625C52.2674 24.7625 51.4348 25.5875 51.4348 26.6366V47.8765C51.4348 48.9255 52.2674 49.7506 53.3261 49.7506C54.3848 49.7506 55.2174 48.9255 55.2174 47.8765V26.6366C55.2174 25.5875 54.3848 24.7625 53.3261 24.7625ZM6.67396 24.7625C5.61527 24.7625 4.78265 25.5875 4.78265 26.6366V47.8765C4.78265 48.9255 5.61527 49.7506 6.67396 49.7506C7.73265 49.7506 8.56526 48.9255 8.56526 47.8765V26.6366C8.56526 25.5875 7.73265 24.7625 6.67396 24.7625Z" fill="black" stroke="black" stroke-width="0.2"/>
</svg>
