<svg width="15" height="15" viewBox="0 0 15 15" fill="none" xmlns="http://www.w3.org/2000/svg">
<path fill-rule="evenodd" clip-rule="evenodd" d="M4.28168 6.65347C4.11422 5.81612 5.06321 5.36954 5.67727 4.97877C6.0122 4.75548 6.06803 4.42054 5.95638 4.0856C5.62144 3.13661 5.00739 2.29926 4.61662 1.35026C4.5608 1.18279 4.39333 1.07115 4.22586 1.01532C2.60699 0.847853 1.4347 2.07596 1.09976 3.58319C0.094942 8.04905 6.90538 14.8595 11.4271 13.9105C12.9343 13.5756 14.1624 12.4033 13.9949 10.7844C13.9391 10.6169 13.8275 10.4495 13.66 10.3936C12.711 10.0029 11.8736 9.38881 10.9247 9.05387C10.5897 8.94222 10.2548 8.99805 10.0315 9.33299C9.64072 9.94704 9.19413 10.896 8.35678 10.7286C6.90538 10.4495 4.50498 8.04905 4.28168 6.65347Z" stroke="black"/>
</svg>
