<svg width="59" height="35" viewBox="0 0 59 35" fill="none" xmlns="http://www.w3.org/2000/svg">
<path d="M58.9706 16.9294L53.4284 1.88779C53.3663 1.65267 53.2081 1.4529 52.9926 1.33622C52.7765 1.21954 52.5204 1.19656 52.2864 1.27081L42.0777 5.22907C40.3471 4.27265 33.7924 0.703909 31.7371 0.366246C31.3974 0.310263 31.0326 0.281978 30.6542 0.281978C28.8675 0.281978 27.1524 0.906625 26.6975 1.08518C25.6421 1.20775 20.0575 1.92492 16.2978 3.78059C13.0222 2.11408 10.4177 0.196531 10.3908 0.177084C10.1926 0.0309405 9.9419 -0.0297566 9.69953 0.0138508C9.45597 0.0556904 9.24107 0.195352 9.10556 0.398657L0.147511 13.838C-0.116945 14.2346 -0.0166545 14.7667 0.374954 15.0431L11.6779 23.0121C11.2875 23.9096 11.2672 24.8112 11.6307 25.6273C12.2551 27.0304 13.8132 27.823 14.6388 28.1572C15.2722 30.6811 16.893 31.0747 17.8403 31.0747C18.1579 31.0747 18.4552 31.0311 18.7143 30.971C19.6187 32.9475 20.8652 33.3912 21.8018 33.3907C21.8018 33.3907 21.8018 33.3907 21.8024 33.3907C22.2841 33.3907 22.714 33.2704 23.056 33.1266C23.6142 33.743 24.6069 34.5622 26.051 34.7401C26.202 34.759 26.3447 34.7672 26.4778 34.7672C27.3524 34.7672 27.8926 34.4019 28.1917 34.0949C28.5994 33.6765 28.7714 33.1596 28.843 32.766L30.8374 34.1467L30.8912 34.1809C31.0667 34.2852 32.3221 35 33.6575 35C34.0575 35 34.4652 34.9364 34.852 34.7714C35.3189 34.5734 35.8967 34.1662 36.2728 33.3276C37.0339 33.3659 38.1968 33.2869 39.1776 32.614C39.9226 32.1036 40.4301 31.3611 40.6903 30.4024C41.4479 30.3375 42.5857 30.0959 43.4794 29.2904C44.1438 28.6911 44.5581 27.9014 44.7157 26.9338C45.5132 26.922 46.6385 26.747 47.4963 25.9833C48.316 25.2543 48.7004 24.1836 48.6526 22.807L58.5055 17.9436C58.884 17.7574 59.078 17.3337 58.9706 16.9294ZM13.2688 24.9131C13.0957 24.5224 13.1231 24.1146 13.3553 23.6297C13.9147 22.4611 14.5833 21.7628 15.1444 21.7628C15.4811 21.7628 15.8889 22.0067 16.324 22.4558C15.6387 23.2973 14.7612 24.6291 14.526 26.1265C14.009 25.8242 13.4903 25.414 13.2688 24.9131ZM16.2936 27.3428L16.293 27.3375C16.0506 26.0222 16.8768 24.6426 17.5645 23.7581L18.1782 23.1859C18.5698 22.8211 19.411 22.2425 20.0019 22.2425C20.5147 22.2425 20.787 22.9131 20.9338 23.6002C20.1703 24.4965 18.346 26.8896 18.3245 29.2438C18.1782 29.2792 18.0129 29.3063 17.8397 29.3063C17.5442 29.3069 16.6446 29.3069 16.2936 27.3428ZM21.8018 31.6234C20.9983 31.624 20.4616 30.6275 20.1387 29.7276L20.1446 29.7264C19.8211 27.971 21.612 25.5142 22.4489 24.5719C22.5892 24.51 22.8745 24.4057 23.2088 24.4057C23.7473 24.4057 24.2165 24.7016 24.6141 25.2738C24.2296 25.4676 23.8768 25.7499 23.5658 26.1176C22.5241 27.3504 22.0459 29.473 22.3122 31.5132C22.157 31.5733 21.9821 31.6234 21.8018 31.6234ZM27.1619 32.2345C27.1619 32.3735 27.0867 32.7124 26.9267 32.8733C26.8951 32.9045 26.7847 33 26.4915 33C26.4277 33 26.3519 32.9952 26.2796 32.987C25.0678 32.8373 24.3311 31.9074 24.1341 31.6251C23.8345 29.9993 24.1729 28.1595 24.9424 27.2497C25.2373 26.9002 25.5573 26.7305 25.922 26.7299C26.042 26.7352 26.9757 26.8254 27.4503 28.4005L27.1369 32.1296L27.1619 32.1873V32.2345ZM46.3018 24.6662C45.7884 25.1259 44.9527 25.1901 44.4214 25.1636L37.5963 19.0526C37.2309 18.7262 36.6638 18.7521 36.3313 19.1139C35.9988 19.4752 36.0269 20.035 36.3934 20.3626L42.9779 26.2591C42.9325 27.0069 42.7057 27.5914 42.2789 27.9792C41.7117 28.4948 40.9178 28.6215 40.4414 28.6492L34.03 22.6043C33.6718 22.2678 33.1059 22.2802 32.7638 22.6332C32.4224 22.9867 32.4355 23.546 32.7931 23.883L38.9991 29.7347C38.8624 30.3841 38.5938 30.8591 38.1634 31.1572C37.7413 31.4489 37.2309 31.542 36.7957 31.5627C36.7725 31.5344 36.7605 31.5008 36.7337 31.4755L31.1508 26.2473C30.7927 25.912 30.2256 25.9255 29.8847 26.2803C29.5444 26.6344 29.5593 27.1937 29.9181 27.5296L34.7941 32.096L34.7774 32.172C34.6013 32.9534 34.2598 33.0995 34.147 33.1473C33.4486 33.4478 32.2397 32.9092 31.8362 32.68L29.0322 30.7394L29.2621 28.2444L29.2221 28.0935C28.6926 26.117 27.4861 25.3003 26.5465 25.0516C25.5263 22.9649 24.0392 22.6385 23.2094 22.6385C22.9724 22.6385 22.7492 22.6632 22.5468 22.7015C21.9522 20.791 20.738 20.4758 20.0019 20.4758C19.1244 20.4758 18.2767 20.9183 17.6947 21.3137C16.8733 20.4386 16.0178 19.9961 15.145 19.9961C14.1995 19.9961 13.3321 20.5099 12.5841 21.4799L2.1169 14.0991L10.0888 2.13765C11.1908 2.89548 13.3577 4.30919 15.902 5.56437C16.1641 5.69402 16.4739 5.68871 16.7312 5.54964C18.6725 4.50424 21.366 3.81183 23.5157 3.38577C22.9677 3.8849 22.3432 4.48597 21.6269 5.22377C18.7012 8.23857 19.9757 10.0666 20.1619 10.3029C20.8813 11.1267 21.8663 11.5622 23.0106 11.5616C25.5209 11.5616 28.2932 9.45899 29.0931 8.80606L31.2607 8.56857C32.7358 13.594 38.4756 15.7514 39.7071 16.1604L46.7209 23.0834C46.7615 23.1235 46.8134 23.1441 46.8594 23.1741C46.8367 23.8453 46.654 24.3498 46.3018 24.6662ZM47.5321 21.3833L40.8223 14.7602C40.7172 14.6565 40.5883 14.5805 40.4462 14.5387C40.3799 14.5186 33.7918 12.5121 32.8289 7.44126C32.7483 7.01933 32.3752 6.71997 31.949 6.71997C31.9162 6.71997 31.8833 6.72174 31.8493 6.72527L28.6245 7.07885C28.4412 7.09889 28.2681 7.1749 28.1296 7.29512C27.3327 7.98989 24.8588 9.79371 23.0106 9.79371C22.4047 9.79371 21.9445 9.60631 21.569 9.20442C21.5063 9.04826 21.2609 8.15548 22.9199 6.44654C25.9465 3.32861 27.2288 2.7788 27.2258 2.7788C27.2455 2.77232 27.2646 2.76466 27.2837 2.75641C27.3004 2.74934 28.9767 2.04867 30.653 2.04867C30.9336 2.04867 31.1986 2.06871 31.4416 2.10878C32.9035 2.34921 38.281 5.14067 41.5386 6.95804C41.7565 7.08062 42.0174 7.10596 42.255 7.02994L51.9359 3.2408L57.0537 16.6843L47.5321 21.3833Z" fill="black"/>
</svg>
