<svg width="34" height="50" viewBox="0 0 34 50" fill="none" xmlns="http://www.w3.org/2000/svg">
<path d="M26.7471 2.91404C26.4689 2.91418 26.1909 2.93086 25.9146 2.96399L25.6649 3.00562C25.4734 3.00562 25.2736 3.06389 25.0821 3.10552C24.9817 3.12455 24.884 3.15528 24.7907 3.19709C24.6159 3.24704 24.4328 3.29699 24.2496 3.36359C24.1522 3.39451 24.0575 3.43349 23.9666 3.48014L23.4921 3.68826C22.8453 2.55774 21.9089 1.62007 20.7793 0.971839C19.6496 0.323606 18.3676 -0.0117506 17.0652 0.000314419H16.9903C15.6925 -0.00184495 14.4174 0.340791 13.2955 0.993168C12.1736 1.64555 11.2451 2.58425 10.605 3.71324L10.5051 3.66329C10.2887 3.56339 10.0639 3.47181 9.83915 3.38857H9.6893C9.47712 3.31106 9.26024 3.24711 9.03996 3.19709C8.93504 3.16497 8.83441 3.12025 8.74026 3.06389L8.19914 2.97232C7.23916 2.86345 6.26715 2.94489 5.33867 3.21198C4.41019 3.47906 3.54347 3.92656 2.78808 4.52886C2.03268 5.13117 1.40342 5.87648 0.936286 6.72217C0.469153 7.56786 0.173308 8.49733 0.0656702 9.45745C0.0321103 9.73367 0.0154299 10.0117 0.015721 10.2899C-0.00524034 10.5226 -0.00524034 10.7566 0.015721 10.9892V11.1807C0.0243208 11.3547 0.0494073 11.5276 0.0906448 11.6969C0.0845281 11.7581 0.0991879 11.8197 0.13227 11.8717C0.13227 12.0548 0.215519 12.2297 0.265469 12.4211V12.5377C0.78261 14.1058 1.81548 15.4527 3.19585 16.3588C3.36923 16.4758 3.54998 16.5815 3.73697 16.6752L3.82022 16.7251C3.97839 16.8084 4.13657 16.875 4.29474 16.9499C4.52359 17.0586 4.76009 17.1504 5.00236 17.2246L5.38531 17.3328V32.7007C5.38531 35.4729 11.2794 36.9381 17.0985 36.9381C22.9176 36.9381 28.82 35.4729 28.82 32.7007V17.3079L29.0864 17.208L29.4444 17.0748L29.7441 16.9416L30.0438 16.7917L30.4684 16.6502L30.7181 16.5003L31.0428 16.2756L31.2259 16.1257L31.5672 15.8593L31.6921 15.7428C31.817 15.6262 31.9419 15.5097 32.0501 15.3931C32.6034 14.8128 33.0589 14.1464 33.3987 13.4201V13.3535C33.4711 13.2018 33.535 13.0461 33.5902 12.8873L33.6485 12.7208C33.6984 12.5876 33.7401 12.4461 33.7817 12.3046C33.8233 12.1631 33.8233 12.1298 33.8483 12.0465C33.8733 11.9633 33.9066 11.7968 33.9315 11.6719L33.9815 11.3056C33.9815 11.1807 33.9815 11.1058 33.9815 11.0059C33.9815 10.906 33.9815 10.548 33.9815 10.3149C33.9949 8.37672 33.2423 6.51167 31.8874 5.12562C30.5326 3.73958 28.6851 2.94473 26.7471 2.91404ZM32.458 10.8227C32.4742 10.8996 32.4742 10.979 32.458 11.0558C32.458 11.1308 32.458 11.2473 32.4164 11.3389C32.3824 11.4329 32.36 11.5308 32.3498 11.6303C32.3349 11.6981 32.3154 11.7649 32.2915 11.8301C32.2915 11.8967 32.2249 12.0548 32.1916 12.1547L32.1417 12.2879C32.1003 12.4107 32.0503 12.5303 31.9918 12.6459V12.7042C31.7262 13.263 31.3751 13.777 30.9512 14.2276L30.6765 14.4857L30.5766 14.5773L30.3185 14.7854L30.1603 14.9103L29.9106 15.0768L29.7108 15.1933L29.4694 15.3349L29.2363 15.4514L29.0032 15.5513L28.7118 15.6845L28.5037 15.7678C27.7735 15.9898 27.0063 16.0637 26.2472 15.985C25.488 15.9064 24.7523 15.6769 24.0831 15.3099C23.8957 15.2018 23.6736 15.1709 23.4638 15.2237C23.2541 15.2766 23.0731 15.409 22.9593 15.5929C22.8519 15.7813 22.8223 16.0042 22.8767 16.214C22.9311 16.4239 23.0653 16.6043 23.2506 16.7168C24.33 17.2996 25.5371 17.6057 26.7638 17.6076H27.3132V32.7007C27.3132 33.5831 23.7501 35.2981 17.2234 35.2981C10.6966 35.2981 7.13354 33.6331 7.13354 32.7173V17.6076H7.41659C8.65199 17.612 9.86866 17.3057 10.9547 16.7168C11.1071 16.598 11.2134 16.4298 11.2554 16.2412C11.2974 16.0525 11.2724 15.8552 11.1848 15.6829C11.0972 15.5107 10.9524 15.3743 10.7752 15.2971C10.5981 15.2199 10.3996 15.2068 10.2138 15.2599H10.1721C8.93307 15.9414 7.48382 16.1344 6.10958 15.8011C5.71058 15.7062 5.3227 15.5694 4.95241 15.3931L4.72764 15.2766L4.57779 15.2433C4.45291 15.1684 4.32804 15.1018 4.21149 15.0185H4.16154C4.02002 14.9186 3.88682 14.8187 3.76194 14.7105C3.03842 14.1291 2.46702 13.3806 2.09696 12.5293C2.03036 12.3684 1.97208 12.2102 1.92213 12.0548V11.9549C1.92213 11.8217 1.84721 11.6885 1.82223 11.547V11.4055C1.81091 11.2712 1.79145 11.1378 1.76396 11.0059V10.8227C1.76396 10.6479 1.76396 10.4564 1.76396 10.2816C1.76396 8.76402 2.36625 7.30845 3.43858 6.23456C4.5109 5.16067 5.96559 4.55626 7.48319 4.55406C7.74241 4.55274 8.00131 4.57223 8.25741 4.61233C9.07779 4.71752 9.86503 5.00172 10.5634 5.44483C10.7453 5.56353 10.9663 5.60646 11.1794 5.56447C11.3925 5.52247 11.5807 5.39888 11.7039 5.22005L11.7789 5.07853C12.1987 4.02735 12.924 3.12616 13.8611 2.49133C14.7982 1.85649 15.9042 1.51717 17.0361 1.51717C18.168 1.51717 19.2739 1.85649 20.211 2.49133C21.1481 3.12616 21.8734 4.02735 22.2933 5.07853C22.378 5.27693 22.5365 5.43469 22.7353 5.51855C22.934 5.60241 23.1576 5.60583 23.3589 5.52808L23.517 5.44483L23.8167 5.25335H23.9333L24.2246 5.09518H24.3079L24.5576 4.99528L24.6575 4.95365L24.9406 4.85375H25.0571L25.3901 4.72056H25.5317L25.7981 4.67061H25.9396H26.2226H26.7971C28.3081 4.67058 29.7578 5.26857 30.8294 6.33394C31.901 7.39931 32.5075 8.84548 32.5163 10.3565C32.506 10.5129 32.4866 10.6686 32.458 10.8227Z" fill="black"/>
<path d="M23.3922 8.96638C23.191 8.89164 22.9686 8.89755 22.7716 8.98287C22.5746 9.06819 22.4182 9.22632 22.335 9.42425C21.9136 10.4915 21.181 11.4073 20.2323 12.0527C19.2836 12.6981 18.1627 13.0432 17.0153 13.0432C15.8679 13.0432 14.7471 12.6981 13.7984 12.0527C12.8497 11.4073 12.1171 10.4915 11.6957 9.42425C11.5927 9.25926 11.4352 9.13554 11.2505 9.07455C11.0659 9.01356 10.8657 9.01915 10.6847 9.09036C10.5037 9.16156 10.3534 9.29389 10.2598 9.46437C10.1661 9.63485 10.1352 9.83272 10.1722 10.0236C10.7133 11.3964 11.6549 12.5745 12.8746 13.4049C14.0943 14.2352 15.5357 14.6792 17.0112 14.6792C18.4867 14.6792 19.928 14.2352 21.1478 13.4049C22.3675 12.5745 23.3091 11.3964 23.8501 10.0236C23.9248 9.82238 23.9189 9.60002 23.8336 9.40301C23.7483 9.20599 23.5902 9.04956 23.3922 8.96638Z" fill="black"/>
<path d="M15.9164 43.59C15.6412 43.1838 15.2682 42.8534 14.8317 42.6294C14.3952 42.4053 13.9094 42.2948 13.4189 42.3079C11.679 42.3079 10.7466 42.9573 9.60611 45.0052C8.34072 47.2197 7.01705 48.3352 5.66009 48.3352C5.27347 48.3352 4.89065 48.2589 4.53357 48.1107C4.17649 47.9625 3.85216 47.7453 3.57916 47.4715C3.30617 47.1978 3.08988 46.8728 2.94269 46.5153C2.79549 46.1578 2.72029 45.7748 2.72138 45.3882C2.72138 45.1674 2.63368 44.9556 2.47755 44.7995C2.32143 44.6434 2.10968 44.5557 1.88889 44.5557C1.6681 44.5557 1.45635 44.6434 1.30023 44.7995C1.1441 44.9556 1.0564 45.1674 1.0564 45.3882C1.0564 46.6025 1.5388 47.7671 2.39747 48.6258C3.25615 49.4845 4.42076 49.9669 5.63511 49.9669C7.62478 49.9669 9.45626 48.56 11.0047 45.8044C12.012 44.0145 12.5115 43.9313 13.394 43.9313C13.6153 43.9172 13.8365 43.9603 14.0362 44.0565C14.236 44.1528 14.4076 44.2989 14.5345 44.4807C14.5741 44.5985 14.6396 44.7058 14.7261 44.795C14.8126 44.8841 14.9179 44.9528 15.0344 44.9959C15.1509 45.0391 15.2756 45.0556 15.3993 45.0443C15.523 45.033 15.6426 44.9941 15.7493 44.9306C15.856 44.8671 15.9472 44.7804 16.0161 44.6771C16.085 44.5737 16.1299 44.4563 16.1476 44.3333C16.1652 44.2104 16.1551 44.085 16.118 43.9665C16.0808 43.8479 16.0177 43.7392 15.9331 43.6483L15.9164 43.59Z" fill="black"/>
<path d="M32.05 44.5637C31.8292 44.5637 31.6175 44.6514 31.4613 44.8075C31.3052 44.9637 31.2175 45.1754 31.2175 45.3962C31.2153 46.1763 30.9038 46.9238 30.3514 47.4747C29.799 48.0256 29.0506 48.3349 28.2705 48.3349C26.9135 48.3349 25.5898 47.211 24.3328 45.0049C23.1756 42.9653 22.2432 42.3076 20.5116 42.3076C20.0188 42.2964 19.5311 42.4104 19.0943 42.639C18.6575 42.8676 18.2859 43.2033 18.0141 43.6147C17.9404 43.7934 17.9311 43.9923 17.988 44.1771C18.0449 44.3619 18.1643 44.5212 18.3258 44.6276C18.4873 44.7339 18.6808 44.7807 18.8731 44.76C19.0653 44.7392 19.2444 44.6521 19.3794 44.5137C19.5067 44.3328 19.6786 44.1879 19.8785 44.0931C20.0783 43.9983 20.2993 43.9568 20.52 43.9726C21.4024 43.9726 21.9102 44.0559 22.9259 45.8374C24.491 48.6013 26.2558 49.9999 28.2871 49.9999C29.5015 49.9999 30.6661 49.5175 31.5248 48.6588C32.3834 47.8001 32.8658 46.6355 32.8658 45.4212C32.8692 45.3111 32.8506 45.2016 32.8113 45.0987C32.772 44.9959 32.7127 44.9019 32.6368 44.8222C32.561 44.7424 32.47 44.6785 32.3693 44.6342C32.2686 44.5898 32.16 44.5658 32.05 44.5637Z" fill="black"/>
</svg>
