<svg width="45" height="50" viewBox="0 0 45 50" fill="none" xmlns="http://www.w3.org/2000/svg">
<path d="M1.14648 48.4371C1.14648 48.6172 1.23254 48.7862 1.37811 48.8918C1.52368 48.9974 1.71105 49.0273 1.88256 48.9724L7.48826 47.1536L13.094 48.9724C13.2069 49.009 13.3283 49.009 13.4412 48.9724L19.0427 47.1536L24.6392 48.9718C24.7527 49.0096 24.8739 49.009 24.9868 48.9724L30.5864 47.1536L36.1848 48.9724C36.2415 48.9907 36.3001 48.9998 36.3584 48.9998C36.4756 48.9998 36.5919 48.9626 36.6889 48.8924C36.8348 48.7862 36.9208 48.6172 36.9208 48.4371V25.0939H43.399C43.7097 25.0939 43.9615 24.8418 43.9615 24.5312V5.08747C43.9615 2.83347 42.132 1 39.8835 1H5.23395C2.97996 1 1.14648 2.83347 1.14648 5.08747V48.4371ZM39.8835 2.12547C41.5119 2.12547 42.8366 3.45419 42.8366 5.08747V23.9684H36.9208V5.08747C36.9208 3.45419 38.2499 2.12547 39.8835 2.12547ZM2.27135 5.08747C2.27135 3.45419 3.60037 2.12547 5.23395 2.12547H37.0698C37.0583 2.13638 37.0483 2.14878 37.037 2.15981C36.9826 2.21275 36.9313 2.26864 36.8799 2.32456C36.8409 2.36686 36.8011 2.40818 36.764 2.45208C36.7149 2.51003 36.6696 2.57087 36.6238 2.63149C36.5891 2.67738 36.5532 2.7222 36.5205 2.76958C36.4771 2.83229 36.438 2.89782 36.3981 2.96302C36.368 3.01219 36.3363 3.06018 36.3083 3.11068C36.2708 3.17812 36.2381 3.24828 36.2045 3.31797C36.1795 3.36951 36.1527 3.41978 36.1299 3.4725C36.0986 3.54494 36.0727 3.61998 36.0456 3.69451C36.0262 3.74765 36.0044 3.79945 35.9873 3.85358C35.9624 3.9319 35.9436 4.01269 35.9234 4.09295C35.9101 4.14586 35.8939 4.19751 35.8827 4.25122C35.8637 4.34224 35.8516 4.43566 35.8387 4.52878C35.8326 4.57371 35.8229 4.61743 35.8182 4.66282C35.8038 4.80244 35.796 4.94408 35.796 5.08747V24.5312V47.6632L30.76 46.0269C30.6471 45.9902 30.5257 45.9902 30.4128 46.0269L24.8132 47.8457L19.2166 46.0275C19.1031 45.9896 18.9819 45.9902 18.869 46.0269L13.2676 47.8457L7.6619 46.0269C7.60544 46.0086 7.54685 45.9994 7.48826 45.9994C7.42966 45.9994 7.37107 46.0086 7.31461 46.0269L2.27135 47.6632V5.08747Z" fill="black" stroke="black" stroke-width="0.4"/>
<path d="M7.73797 37.6719H23.7976C24.1083 37.6719 24.3601 37.4198 24.3601 37.1091C24.3601 36.7985 24.1083 36.5464 23.7976 36.5464H7.73797C7.4273 36.5464 7.17554 36.7985 7.17554 37.1091C7.17554 37.4198 7.4273 37.6719 7.73797 37.6719Z" fill="black" stroke="black" stroke-width="0.4"/>
<path d="M7.73797 31.3828H28.9428C29.2535 31.3828 29.5053 31.1307 29.5053 30.8201C29.5053 30.5094 29.2535 30.2573 28.9428 30.2573H7.73797C7.4273 30.2573 7.17554 30.5094 7.17554 30.8201C7.17554 31.1307 7.4273 31.3828 7.73797 31.3828Z" fill="black" stroke="black" stroke-width="0.4"/>
<path d="M7.73797 25.094H23.7976C24.1083 25.094 24.3601 24.8419 24.3601 24.5312C24.3601 24.2206 24.1083 23.9685 23.7976 23.9685H7.73797C7.4273 23.9685 7.17554 24.2206 7.17554 24.5312C7.17554 24.8419 7.4273 25.094 7.73797 25.094Z" fill="black" stroke="black" stroke-width="0.4"/>
<path d="M7.73797 18.8049H30.1046C30.4153 18.8049 30.667 18.5528 30.667 18.2422C30.667 17.9315 30.4153 17.6794 30.1046 17.6794H7.73797C7.4273 17.6794 7.17554 17.9315 7.17554 18.2422C7.17554 18.5528 7.4273 18.8049 7.73797 18.8049Z" fill="black" stroke="black" stroke-width="0.4"/>
<path d="M7.73797 12.5161H28.0566C28.3673 12.5161 28.619 12.264 28.619 11.9534C28.619 11.6427 28.3673 11.3906 28.0566 11.3906H7.73797C7.4273 11.3906 7.17554 11.6427 7.17554 11.9534C7.17554 12.264 7.4273 12.5161 7.73797 12.5161Z" fill="black" stroke="black" stroke-width="0.4"/>
</svg>
