<svg width="55" height="47" viewBox="0 0 55 47" fill="none" xmlns="http://www.w3.org/2000/svg">
<path d="M45.5263 45.4841H9.0495C8.63033 45.4841 8.2915 45.823 8.2915 46.2421C8.2915 46.6613 8.63033 47.0001 9.0495 47.0001H45.5256C45.9447 47.0001 46.2835 46.6613 46.2835 46.2421C46.2835 45.823 45.9447 45.4841 45.5263 45.4841Z" fill="black"/>
<path d="M54.5754 13.1633C54.5754 10.7415 52.6046 8.77072 50.1828 8.77072C47.761 8.77072 45.7903 10.7415 45.7903 13.1633C45.7903 15.2144 47.2069 16.9373 49.1125 17.4171C46.5293 23.6243 43.3503 26.4145 38.8834 26.4145C34.1892 26.4145 30.967 22.8989 28.7415 15.3493C28.4891 14.5004 28.3754 13.7015 28.264 12.9275C28.2359 12.7358 28.2087 12.5485 28.1798 12.3628C31.1868 11.9285 33.5055 9.34224 33.5055 6.21705C33.5055 2.78941 30.7161 0 27.2877 0C23.8593 0 21.0706 2.78941 21.0706 6.21705C21.0706 9.34528 23.3946 11.9331 26.4054 12.3644C26.3766 12.5539 26.3402 12.7312 26.3122 12.9275C26.2015 13.7015 26.087 14.5004 25.8331 15.3516C23.6092 22.8989 20.3869 26.4145 15.6927 26.4145C11.2259 26.4145 8.04684 23.6243 5.46284 17.4171C7.36919 16.9373 8.78512 15.2144 8.78512 13.1633C8.78512 10.7415 6.8151 8.77072 4.39256 8.77072C1.97078 8.77072 0 10.7415 0 13.1633C0 15.3668 1.63423 17.1912 3.75433 17.5028L8.30455 41.6986C8.31062 41.7297 8.32805 41.7547 8.33715 41.7843C8.34928 41.8229 8.3614 41.8601 8.3796 41.8949C8.40461 41.945 8.43645 41.9882 8.47131 42.0314C8.49405 42.0602 8.51528 42.089 8.5418 42.1132C8.58653 42.1542 8.63655 42.1837 8.68961 42.2125C8.71766 42.2285 8.74267 42.2482 8.77299 42.2603C8.86016 42.2944 8.95188 42.3156 9.0489 42.3156H9.04966H45.5265H45.5272C45.6243 42.3156 45.716 42.2944 45.8024 42.2603C45.8342 42.2474 45.8585 42.2277 45.888 42.2118C45.9388 42.183 45.9896 42.1542 46.0328 42.114C46.0609 42.089 46.0813 42.0594 46.1056 42.0299C46.1397 41.9882 46.1708 41.9457 46.1958 41.8957C46.214 41.8593 46.2261 41.8214 46.239 41.7828C46.2481 41.7532 46.2648 41.7289 46.2708 41.6986L50.821 17.5028C52.9412 17.192 54.5754 15.3668 54.5754 13.1633ZM22.5866 6.21705C22.5866 3.62547 24.6954 1.51598 27.2877 1.51598C29.8808 1.51598 31.9895 3.62547 31.9895 6.21705C31.9895 8.80938 29.8808 10.9189 27.2877 10.9189C24.6954 10.9189 22.5866 8.80938 22.5866 6.21705ZM15.6927 27.9305C23.7077 27.9305 26.4016 18.7868 27.2869 15.7829C27.2869 15.7821 27.2869 15.7806 27.2877 15.7799L27.2884 15.7806C28.1738 18.7868 30.87 27.9305 38.8834 27.9305C43.4579 27.9305 46.4058 25.2767 48.4068 22.1371L44.8974 40.8012H9.67803L6.16929 22.1379C8.17115 25.2767 11.119 27.9305 15.6927 27.9305ZM1.51598 13.1633C1.51598 11.5768 2.80608 10.2867 4.39256 10.2867C5.97904 10.2867 7.26914 11.5768 7.26914 13.1633C7.26914 14.7482 5.97904 16.0383 4.39256 16.0383C2.80608 16.0383 1.51598 14.7482 1.51598 13.1633ZM50.1828 16.0383C48.5963 16.0383 47.3062 14.7482 47.3062 13.1633C47.3062 11.5768 48.5963 10.2867 50.1828 10.2867C51.7693 10.2867 53.0594 11.5768 53.0594 13.1633C53.0594 14.7482 51.7693 16.0383 50.1828 16.0383Z" fill="black"/>
</svg>
