<svg width="36" height="39" viewBox="0 0 36 39" fill="none" xmlns="http://www.w3.org/2000/svg">
<path d="M18 35.4375C9.936 35.4375 3.375 28.8771 3.375 20.8125C3.375 12.7485 9.936 6.1875 18 6.1875C26.0646 6.1875 32.625 12.7485 32.625 20.8125C32.625 28.8771 26.0646 35.4375 18 35.4375ZM18 7.3125C10.5564 7.3125 4.5 13.3689 4.5 20.8125C4.5 28.2561 10.5564 34.3125 18 34.3125C25.4436 34.3125 31.5 28.2561 31.5 20.8125C31.5 13.3689 25.4436 7.3125 18 7.3125Z" fill="black"/>
<path d="M31.1102 8.49769L31.5236 8.08481L31.9213 8.48306C32.0271 8.58881 32.1694 8.64787 32.319 8.64787C32.4686 8.64787 32.6115 8.58881 32.7167 8.48306L33.9097 7.29C34.1297 7.07006 34.1297 6.71456 33.9097 6.49463L32.319 4.90331C32.2132 4.79756 32.0709 4.7385 31.9213 4.7385C31.7717 4.7385 31.6288 4.79756 31.5236 4.90331L30.3306 6.09638C30.1106 6.31631 30.1106 6.67181 30.3306 6.89175L30.7282 7.28944L30.3148 7.70288C27.4781 5.03606 23.7803 3.27656 19.6875 2.89406V1.125H20.25C20.5611 1.125 20.8125 0.873 20.8125 0.5625C20.8125 0.252 20.5611 0 20.25 0H19.125H16.875H15.75C15.4395 0 15.1875 0.252 15.1875 0.5625C15.1875 0.873 15.4395 1.125 15.75 1.125H16.3125V2.89406C12.2192 3.27656 8.52187 5.03606 5.68519 7.70231L5.27231 7.28944L5.67 6.89119C5.88994 6.67125 5.88994 6.31575 5.67 6.09581L4.47694 4.90275C4.266 4.69181 3.8925 4.69181 3.68156 4.90275L2.09025 6.49406C1.9845 6.59981 1.92544 6.74269 1.92544 6.89175C1.92544 7.04081 1.9845 7.18425 2.09025 7.28944L3.28388 8.4825C3.38963 8.58825 3.5325 8.64731 3.68156 8.64731C3.83062 8.64731 3.97406 8.58825 4.07925 8.4825L4.47694 8.08425L4.88981 8.49712C1.86131 11.7197 0 16.0521 0 20.8125C0 30.7378 8.07469 38.8125 18 38.8125C27.9253 38.8125 36 30.7378 36 20.8125C36 16.0521 34.1387 11.7197 31.1102 8.49769ZM31.9213 6.09581L32.7167 6.89175L32.319 7.28944L31.5236 6.4935L31.9213 6.09581ZM3.681 7.28944L3.28275 6.89175L4.07869 6.09581L4.47638 6.4935L3.681 7.28944ZM17.4375 2.8125V1.125H18.5625V2.8125H17.4375ZM18 37.6875C8.69513 37.6875 1.125 30.1174 1.125 20.8125C1.125 11.5076 8.69513 3.9375 18 3.9375C27.3049 3.9375 34.875 11.5076 34.875 20.8125C34.875 30.1174 27.3049 37.6875 18 37.6875Z" fill="black"/>
<path d="M18.5625 18.6424V13.5C18.5625 13.1895 18.3105 12.9375 18 12.9375C17.6895 12.9375 17.4375 13.1895 17.4375 13.5V18.6424C16.47 18.8938 15.75 19.7674 15.75 20.8125C15.75 22.0534 16.7591 23.0625 18 23.0625C19.2409 23.0625 20.25 22.0534 20.25 20.8125C20.25 19.7674 19.5306 18.8938 18.5625 18.6424ZM18 21.9375C17.3796 21.9375 16.875 21.4329 16.875 20.8125C16.875 20.1921 17.3796 19.6875 18 19.6875C18.6204 19.6875 19.125 20.1921 19.125 20.8125C19.125 21.4329 18.6204 21.9375 18 21.9375Z" fill="black"/>
<path d="M18 10.125C17.6895 10.125 17.4375 9.873 17.4375 9.5625V9C17.4375 8.6895 17.6895 8.4375 18 8.4375C18.3105 8.4375 18.5625 8.6895 18.5625 9V9.5625C18.5625 9.873 18.3105 10.125 18 10.125Z" fill="black"/>
<path d="M10.045 13.4196C9.90105 13.4196 9.75705 13.3644 9.64736 13.2547L9.24967 12.8571C9.02973 12.6371 9.02973 12.2816 9.24967 12.0617C9.46961 11.8417 9.82511 11.8417 10.045 12.0617L10.4427 12.4594C10.6627 12.6793 10.6627 13.0348 10.4427 13.2547C10.333 13.365 10.189 13.4196 10.045 13.4196Z" fill="black"/>
<path d="M6.75 21.375H6.1875C5.877 21.375 5.625 21.1236 5.625 20.8125C5.625 20.5014 5.877 20.25 6.1875 20.25H6.75C7.0605 20.25 7.3125 20.5014 7.3125 20.8125C7.3125 21.1236 7.0605 21.375 6.75 21.375Z" fill="black"/>
<path d="M9.64736 29.7282C9.50336 29.7282 9.35936 29.673 9.24967 29.5633C9.02973 29.3434 9.02973 28.9879 9.24967 28.768L9.64736 28.3703C9.8673 28.1503 10.2228 28.1503 10.4427 28.3703C10.6627 28.5902 10.6627 28.9457 10.4427 29.1657L10.045 29.5633C9.93536 29.673 9.79136 29.7282 9.64736 29.7282Z" fill="black"/>
<path d="M18 33.1875C17.6895 33.1875 17.4375 32.9361 17.4375 32.625V32.0625C17.4375 31.7514 17.6895 31.5 18 31.5C18.3105 31.5 18.5625 31.7514 18.5625 32.0625V32.625C18.5625 32.9361 18.3105 33.1875 18 33.1875Z" fill="black"/>
<path d="M26.3532 29.7282C26.2092 29.7282 26.0652 29.673 25.9555 29.5633L25.5578 29.1657C25.3378 28.9457 25.3378 28.5902 25.5578 28.3703C25.7777 28.1503 26.1332 28.1503 26.3532 28.3703L26.7508 28.768C26.9708 28.9879 26.9708 29.3434 26.7508 29.5633C26.6406 29.673 26.4966 29.7282 26.3532 29.7282Z" fill="black"/>
<path d="M29.8125 21.375H29.25C28.9389 21.375 28.6875 21.1236 28.6875 20.8125C28.6875 20.5014 28.9389 20.25 29.25 20.25H29.8125C30.1236 20.25 30.375 20.5014 30.375 20.8125C30.375 21.1236 30.1236 21.375 29.8125 21.375Z" fill="black"/>
<path d="M25.9555 13.4196C25.8115 13.4196 25.6675 13.3644 25.5578 13.2547C25.3378 13.0348 25.3378 12.6793 25.5578 12.4594L25.9555 12.0617C26.1754 11.8417 26.5309 11.8417 26.7508 12.0617C26.9708 12.2816 26.9708 12.6371 26.7508 12.8571L26.3532 13.2547C26.2429 13.365 26.0989 13.4196 25.9555 13.4196Z" fill="black"/>
</svg>
