<svg width="38" height="24" viewBox="0 0 38 24" fill="none" xmlns="http://www.w3.org/2000/svg">
<path d="M19 1C16.4615 1 14.3946 3.06653 14.3946 5.60465C14.3946 8.14277 16.4615 10.2093 19 10.2093C21.5385 10.2093 23.6054 8.14277 23.6054 5.60465C23.6054 3.06653 21.5385 1 19 1ZM19 1.83721C21.086 1.83721 22.7681 3.51899 22.7681 5.60465C22.7681 7.69031 21.086 9.37209 19 9.37209C16.914 9.37209 15.2319 7.69031 15.2319 5.60465C15.2319 3.51899 16.914 1.83721 19 1.83721ZM8.1145 4.34884C6.03841 4.34884 4.34644 6.04053 4.34644 8.11628C4.34644 10.192 6.03841 11.8837 8.1145 11.8837C10.1906 11.8837 11.8826 10.192 11.8826 8.11628C11.8826 6.04053 10.1906 4.34884 8.1145 4.34884ZM29.8855 4.34884C27.8094 4.34884 26.1174 6.04053 26.1174 8.11628C26.1174 10.192 27.8094 11.8837 29.8855 11.8837C31.9616 11.8837 33.6536 10.192 33.6536 8.11628C33.6536 6.04053 31.9616 4.34884 29.8855 4.34884ZM8.1145 5.18605C9.73804 5.18605 11.0452 6.493 11.0452 8.11628C11.0452 9.73956 9.73804 11.0465 8.1145 11.0465C6.49095 11.0465 5.18378 9.73956 5.18378 8.11628C5.18378 6.493 6.49095 5.18605 8.1145 5.18605ZM29.8855 5.18605C31.5091 5.18605 32.8162 6.493 32.8162 8.11628C32.8162 9.73956 31.509 11.0465 29.8855 11.0465C28.262 11.0465 26.9548 9.73956 26.9548 8.11628C26.9548 6.493 28.262 5.18605 29.8855 5.18605ZM19 12.7209C16.7507 12.7209 14.679 13.8155 13.047 15.6381C12.7811 15.9349 12.5311 16.2591 12.2881 16.593C11.1889 15.7333 9.90612 15.2326 8.54625 15.2326C4.93778 15.2326 1.9796 18.4679 1.01014 23.0945C0.996465 23.1555 0.996625 23.2187 1.01061 23.2797C1.02459 23.3406 1.05203 23.3976 1.09093 23.4465C1.12983 23.4954 1.17919 23.535 1.23539 23.5624C1.2916 23.5898 1.35321 23.6042 1.41573 23.6046H17.744C17.7995 23.6054 17.8545 23.5952 17.906 23.5745C17.9575 23.5538 18.0044 23.5231 18.0439 23.4842C18.0834 23.4452 18.1148 23.3988 18.1362 23.3476C18.1576 23.2964 18.1686 23.2415 18.1686 23.186C18.1686 23.1306 18.1576 23.0756 18.1362 23.0245C18.1148 22.9733 18.0834 22.9269 18.0439 22.8879C18.0044 22.849 17.9575 22.8183 17.906 22.7976C17.8545 22.7769 17.7995 22.7667 17.744 22.7674H10.5088C11.1147 20.0776 12.2356 17.7949 13.675 16.1875C15.1851 14.5011 17.0208 13.5581 19 13.5581C20.9792 13.5581 22.8173 14.5012 24.325 16.1875C25.7621 17.7948 26.8731 20.0774 27.4781 22.7674H20.256C20.2005 22.7667 20.1455 22.7769 20.094 22.7976C20.0425 22.8183 19.9956 22.849 19.9561 22.8879C19.9166 22.9269 19.8852 22.9733 19.8638 23.0245C19.8424 23.0756 19.8314 23.1306 19.8314 23.186C19.8314 23.2415 19.8424 23.2964 19.8638 23.3476C19.8852 23.3988 19.9166 23.4452 19.9561 23.4842C19.9956 23.5231 20.0425 23.5538 20.094 23.5745C20.1455 23.5952 20.2005 23.6054 20.256 23.6046H36.5843C36.6468 23.6042 36.7084 23.5898 36.7646 23.5624C36.8208 23.535 36.8702 23.4954 36.9091 23.4465C36.948 23.3976 36.9754 23.3406 36.9894 23.2797C37.0034 23.2187 37.0035 23.1555 36.9899 23.0945C36.0204 18.4679 33.0622 15.2326 29.4537 15.2326C28.0894 15.2326 26.8009 15.7416 25.6988 16.6061C25.4542 16.269 25.2076 15.9375 24.9399 15.6381C23.3104 13.8154 21.2493 12.7209 19 12.7209ZM8.54625 16.0698C9.7184 16.0698 10.8275 16.5089 11.8171 17.2994C10.8419 18.8394 10.0922 20.6877 9.64527 22.7674H1.9914C3.01002 18.7052 5.57287 16.0698 8.54625 16.0698ZM29.4537 16.0698C32.4271 16.0698 34.99 18.7052 36.0086 22.7674H28.3416C27.8952 20.6904 27.1561 18.8383 26.1829 17.2994C27.1716 16.5111 28.2834 16.0698 29.4537 16.0698Z" fill="black" stroke="black" stroke-width="0.3"/>
</svg>
