<svg width="37" height="42" viewBox="0 0 37 42" fill="none" xmlns="http://www.w3.org/2000/svg">
<path d="M1 40.5309C1 40.681 1.07172 40.8219 1.19302 40.9098C1.31433 40.9978 1.47047 41.0228 1.6134 40.977L6.28481 39.4613L10.9562 40.977C11.0503 41.0075 11.1515 41.0075 11.2456 40.977L15.9135 39.4613L20.5773 40.9765C20.6719 41.008 20.7728 41.0075 20.8669 40.977L25.5333 39.4613L30.1986 40.977C30.2459 40.9922 30.2947 40.9999 30.3433 40.9999C30.4409 40.9999 30.5378 40.9688 30.6187 40.9104C30.7403 40.8219 30.812 40.681 30.812 40.5309V21.0783H36.2105C36.4693 21.0783 36.6791 20.8682 36.6791 20.6093V4.40622C36.6791 2.52789 35.1546 1 33.2808 1H4.40622C2.52789 1 1 2.52789 1 4.40622V40.5309ZM33.2808 1.93789C34.6378 1.93789 35.7418 3.04516 35.7418 4.40622V20.1404H30.812V4.40622C30.812 3.04516 31.9195 1.93789 33.2808 1.93789ZM1.93739 4.40622C1.93739 3.04516 3.0449 1.93789 4.40622 1.93789H30.9361C30.9265 1.94699 30.9182 1.95732 30.9088 1.9665C30.8634 2.01063 30.8207 2.0572 30.7778 2.1038C30.7453 2.13905 30.7122 2.17348 30.6812 2.21007C30.6403 2.25836 30.6026 2.30906 30.5644 2.35957C30.5355 2.39781 30.5056 2.43517 30.4783 2.47465C30.4422 2.52691 30.4096 2.58152 30.3763 2.63585C30.3512 2.67682 30.3248 2.71681 30.3015 2.7589C30.2703 2.8151 30.243 2.87356 30.215 2.93164C30.1942 2.97459 30.1718 3.01649 30.1529 3.06042C30.1268 3.12078 30.1052 3.18331 30.0826 3.24543C30.0665 3.28971 30.0483 3.33288 30.034 3.37799C30.0133 3.44325 29.9976 3.51058 29.9808 3.57746C29.9697 3.62155 29.9562 3.66459 29.9468 3.70935C29.931 3.7852 29.9209 3.86305 29.9102 3.94065C29.9051 3.97809 29.897 4.01452 29.8931 4.05235C29.8811 4.1687 29.8746 4.28673 29.8746 4.40622V20.6093V39.886L25.678 38.5224C25.5839 38.4919 25.4827 38.4919 25.3886 38.5224L20.7222 40.0381L16.0584 38.5229C15.9638 38.4914 15.8629 38.4919 15.7688 38.5224L11.1009 40.0381L6.42951 38.5224C6.38247 38.5071 6.33364 38.4995 6.28481 38.4995C6.23598 38.4995 6.18716 38.5071 6.14011 38.5224L1.93739 39.886V4.40622Z" fill="black" stroke="black" stroke-width="0.2"/>
<path d="M6.49262 31.5598H19.8757C20.1346 31.5598 20.3444 31.3498 20.3444 31.0909C20.3444 30.832 20.1346 30.6219 19.8757 30.6219H6.49262C6.23373 30.6219 6.02393 30.832 6.02393 31.0909C6.02393 31.3498 6.23373 31.5598 6.49262 31.5598Z" fill="black" stroke="black" stroke-width="0.2"/>
<path d="M6.49262 26.3191H24.1633C24.4222 26.3191 24.632 26.1091 24.632 25.8502C24.632 25.5913 24.4222 25.3812 24.1633 25.3812H6.49262C6.23373 25.3812 6.02393 25.5913 6.02393 25.8502C6.02393 26.1091 6.23373 26.3191 6.49262 26.3191Z" fill="black" stroke="black" stroke-width="0.2"/>
<path d="M6.49262 21.0783H19.8757C20.1346 21.0783 20.3444 20.8682 20.3444 20.6093C20.3444 20.3504 20.1346 20.1404 19.8757 20.1404H6.49262C6.23373 20.1404 6.02393 20.3504 6.02393 20.6093C6.02393 20.8682 6.23373 21.0783 6.49262 21.0783Z" fill="black" stroke="black" stroke-width="0.2"/>
<path d="M6.49262 15.8374H25.1315C25.3904 15.8374 25.6002 15.6274 25.6002 15.3685C25.6002 15.1096 25.3904 14.8995 25.1315 14.8995H6.49262C6.23373 14.8995 6.02393 15.1096 6.02393 15.3685C6.02393 15.6274 6.23373 15.8374 6.49262 15.8374Z" fill="black" stroke="black" stroke-width="0.2"/>
<path d="M6.49262 10.5966H23.4248C23.6837 10.5966 23.8935 10.3865 23.8935 10.1276C23.8935 9.86875 23.6837 9.65869 23.4248 9.65869H6.49262C6.23373 9.65869 6.02393 9.86875 6.02393 10.1276C6.02393 10.3865 6.23373 10.5966 6.49262 10.5966Z" fill="black" stroke="black" stroke-width="0.2"/>
</svg>
