<svg width="42" height="42" viewBox="0 0 42 42" fill="none" xmlns="http://www.w3.org/2000/svg">
<path d="M40.5012 40.0023H39.5929V7.48917C39.5929 7.3251 39.5129 7.17178 39.3781 7.07851C39.2433 6.98476 39.0709 6.96279 38.9181 7.02089L23.2585 12.8638C23.0632 12.9366 22.9333 13.1236 22.9333 13.3321V40.0023H20.1026V6.50135C20.1026 6.33581 20.0206 6.18102 19.8839 6.08776C12.2435 0.891317 3.13971 0.993859 2.76031 1.00118C2.48735 1.00607 2.26908 1.22873 2.26908 1.5012V40.0023H1.50001C1.22364 40.0023 1 40.226 1 40.5023C1 40.7787 1.22364 41.0024 1.50001 41.0024H40.5012C40.7775 41.0024 41.0012 40.7787 41.0012 40.5023C41.0012 40.226 40.7775 40.0023 40.5012 40.0023ZM38.5929 8.2094V19.9778H23.9333V13.6793L38.5929 8.2094ZM23.9333 20.9778H38.5929V40.0023H23.9333V20.9778ZM19.1026 6.76796V28.627H3.26911V2.00756C5.23841 2.06274 12.7538 2.55494 19.1026 6.76796ZM3.26911 29.627H19.1026V40.0023H15.3022V34.0647C15.3022 33.7883 15.0785 33.5646 14.8022 33.5646H7.56904C7.29267 33.5646 7.06903 33.7883 7.06903 34.0647V40.0023H3.26911V29.627ZM11.6859 34.5647H14.3022V40.0023H11.6859V34.5647ZM10.6858 40.0023H8.06906V34.5647H10.6858V40.0023Z" fill="black" stroke="black" stroke-width="0.1"/>
<path d="M27.0999 24.8607H35.4268C35.7031 24.8607 35.9268 24.6371 35.9268 24.3607C35.9268 24.0844 35.7031 23.8607 35.4268 23.8607H27.0999C26.8235 23.8607 26.5999 24.0844 26.5999 24.3607C26.5999 24.6371 26.8235 24.8607 27.0999 24.8607Z" fill="black" stroke="black" stroke-width="0.1"/>
<path d="M35.4268 26.9263H27.0999C26.8235 26.9263 26.5999 27.1499 26.5999 27.4263C26.5999 27.7027 26.8235 27.9263 27.0999 27.9263H35.4268C35.7031 27.9263 35.9268 27.7027 35.9268 27.4263C35.9268 27.1499 35.7031 26.9263 35.4268 26.9263Z" fill="black" stroke="black" stroke-width="0.1"/>
<path d="M35.4268 29.9918H27.0999C26.8235 29.9918 26.5999 30.2155 26.5999 30.4918C26.5999 30.7682 26.8235 30.9919 27.0999 30.9919H35.4268C35.7031 30.9919 35.9268 30.7682 35.9268 30.4918C35.9268 30.2155 35.7031 29.9918 35.4268 29.9918Z" fill="black" stroke="black" stroke-width="0.1"/>
<path d="M35.4268 33.0569H27.0999C26.8235 33.0569 26.5999 33.2805 26.5999 33.5569C26.5999 33.8333 26.8235 34.0569 27.0999 34.0569H35.4268C35.7031 34.0569 35.9268 33.8333 35.9268 33.5569C35.9268 33.2805 35.7031 33.0569 35.4268 33.0569Z" fill="black" stroke="black" stroke-width="0.1"/>
<path d="M35.4268 36.1223H27.0999C26.8235 36.1223 26.5999 36.346 26.5999 36.6223C26.5999 36.8987 26.8235 37.1223 27.0999 37.1223H35.4268C35.7031 37.1223 35.9268 36.8987 35.9268 36.6223C35.9268 36.346 35.7031 36.1223 35.4268 36.1223Z" fill="black" stroke="black" stroke-width="0.1"/>
<path d="M5.78004 14.3351C6.05642 14.3351 6.28006 14.1114 6.28006 13.8351V11.2515C6.28006 10.9751 6.05642 10.7515 5.78004 10.7515C5.50367 10.7515 5.28003 10.9751 5.28003 11.2515V13.8351C5.28003 14.1114 5.50367 14.3351 5.78004 14.3351Z" fill="black" stroke="black" stroke-width="0.1"/>
<path d="M8.4944 14.3351C8.77077 14.3351 8.99441 14.1114 8.99441 13.8351V11.2515C8.99441 10.9751 8.77077 10.7515 8.4944 10.7515C8.21802 10.7515 7.99438 10.9751 7.99438 11.2515V13.8351C7.99438 14.1114 8.21802 14.3351 8.4944 14.3351Z" fill="black" stroke="black" stroke-width="0.1"/>
<path d="M11.2088 14.3351C11.4851 14.3351 11.7088 14.1114 11.7088 13.8351V11.2515C11.7088 10.9751 11.4851 10.7515 11.2088 10.7515C10.9324 10.7515 10.7087 10.9751 10.7087 11.2515V13.8351C10.7087 14.1114 10.9324 14.3351 11.2088 14.3351Z" fill="black" stroke="black" stroke-width="0.1"/>
<path d="M13.9234 14.3351C14.1997 14.3351 14.4234 14.1114 14.4234 13.8351V11.2515C14.4234 10.9751 14.1997 10.7515 13.9234 10.7515C13.647 10.7515 13.4233 10.9751 13.4233 11.2515V13.8351C13.4233 14.1114 13.647 14.3351 13.9234 14.3351Z" fill="black" stroke="black" stroke-width="0.1"/>
<path d="M5.78004 20.0853C6.05642 20.0853 6.28006 19.8617 6.28006 19.5853V17.0017C6.28006 16.7253 6.05642 16.5017 5.78004 16.5017C5.50367 16.5017 5.28003 16.7253 5.28003 17.0017V19.5853C5.28003 19.8617 5.50367 20.0853 5.78004 20.0853Z" fill="black" stroke="black" stroke-width="0.1"/>
<path d="M8.4944 20.0853C8.77077 20.0853 8.99441 19.8617 8.99441 19.5853V17.0017C8.99441 16.7253 8.77077 16.5017 8.4944 16.5017C8.21802 16.5017 7.99438 16.7253 7.99438 17.0017V19.5853C7.99438 19.8617 8.21802 20.0853 8.4944 20.0853Z" fill="black" stroke="black" stroke-width="0.1"/>
<path d="M11.2088 20.0853C11.4851 20.0853 11.7088 19.8617 11.7088 19.5853V17.0017C11.7088 16.7253 11.4851 16.5017 11.2088 16.5017C10.9324 16.5017 10.7087 16.7253 10.7087 17.0017V19.5853C10.7087 19.8617 10.9324 20.0853 11.2088 20.0853Z" fill="black" stroke="black" stroke-width="0.1"/>
<path d="M13.9234 20.0853C14.1997 20.0853 14.4234 19.8617 14.4234 19.5853V17.0017C14.4234 16.7253 14.1997 16.5017 13.9234 16.5017C13.647 16.5017 13.4233 16.7253 13.4233 17.0017V19.5853C13.4233 19.8617 13.647 20.0853 13.9234 20.0853Z" fill="black" stroke="black" stroke-width="0.1"/>
<path d="M5.78004 25.8354C6.05642 25.8354 6.28006 25.6118 6.28006 25.3354V22.7518C6.28006 22.4755 6.05642 22.2518 5.78004 22.2518C5.50367 22.2518 5.28003 22.4755 5.28003 22.7518V25.3354C5.28003 25.6118 5.50367 25.8354 5.78004 25.8354Z" fill="black" stroke="black" stroke-width="0.1"/>
<path d="M8.4944 25.8354C8.77077 25.8354 8.99441 25.6118 8.99441 25.3354V22.7518C8.99441 22.4755 8.77077 22.2518 8.4944 22.2518C8.21802 22.2518 7.99438 22.4755 7.99438 22.7518V25.3354C7.99438 25.6118 8.21802 25.8354 8.4944 25.8354Z" fill="black" stroke="black" stroke-width="0.1"/>
<path d="M11.2088 25.8354C11.4851 25.8354 11.7088 25.6118 11.7088 25.3354V22.7518C11.7088 22.4755 11.4851 22.2518 11.2088 22.2518C10.9324 22.2518 10.7087 22.4755 10.7087 22.7518V25.3354C10.7087 25.6118 10.9324 25.8354 11.2088 25.8354Z" fill="black" stroke="black" stroke-width="0.1"/>
<path d="M13.9234 25.8354C14.1997 25.8354 14.4234 25.6118 14.4234 25.3354V22.7518C14.4234 22.4755 14.1997 22.2518 13.9234 22.2518C13.647 22.2518 13.4233 22.4755 13.4233 22.7518V25.3354C13.4233 25.6118 13.647 25.8354 13.9234 25.8354Z" fill="black" stroke="black" stroke-width="0.1"/>
<path d="M16.5918 14.3351C16.8682 14.3351 17.0918 14.1114 17.0918 13.8351V11.2515C17.0918 10.9751 16.8682 10.7515 16.5918 10.7515C16.3154 10.7515 16.0918 10.9751 16.0918 11.2515V13.8351C16.0918 14.1114 16.3154 14.3351 16.5918 14.3351Z" fill="black" stroke="black" stroke-width="0.1"/>
<path d="M16.5918 20.0853C16.8682 20.0853 17.0918 19.8617 17.0918 19.5853V17.0017C17.0918 16.7253 16.8682 16.5017 16.5918 16.5017C16.3154 16.5017 16.0918 16.7253 16.0918 17.0017V19.5853C16.0918 19.8617 16.3154 20.0853 16.5918 20.0853Z" fill="black" stroke="black" stroke-width="0.1"/>
<path d="M16.5918 25.8354C16.8682 25.8354 17.0918 25.6118 17.0918 25.3354V22.7518C17.0918 22.4755 16.8682 22.2518 16.5918 22.2518C16.3154 22.2518 16.0918 22.4755 16.0918 22.7518V25.3354C16.0918 25.6118 16.3154 25.8354 16.5918 25.8354Z" fill="black" stroke="black" stroke-width="0.1"/>
</svg>
