<svg width="35" height="35" viewBox="0 0 35 35" fill="none" xmlns="http://www.w3.org/2000/svg">
<path d="M27.2575 23.3863L27.0454 22.803L28.5833 21.6894C28.7954 21.5303 28.8485 21.2121 28.6894 20.9469C28.5303 20.7348 28.2121 20.6818 27.9469 20.8409L26.6742 21.7954L25.6136 18.9318C25.1363 17.7121 23.9697 16.9166 22.6969 16.9166H12.356C11.0833 16.9166 9.86361 17.7121 9.43936 18.9318L8.37876 21.7954L7.10603 20.8939C6.89391 20.7348 6.5227 20.7878 6.36361 21C6.20452 21.2121 6.25755 21.5833 6.46967 21.7424L7.95452 22.803L7.7424 23.3863C6.68179 23.4924 5.78027 24.3939 5.78027 25.4545V28.2651C5.78027 29.2197 6.31058 30.0151 7.10603 30.3863V33.0378C7.10603 33.356 7.31815 33.5681 7.63633 33.5681H10.4469C10.7651 33.5681 10.9772 33.356 10.9772 33.0378V30.6515H24.0227V33.0378C24.0227 33.356 24.2348 33.5681 24.553 33.5681H27.3636C27.6818 33.5681 27.8939 33.356 27.8939 33.0378V30.3863C28.6894 30.0151 29.2197 29.1666 29.2197 28.2651V25.4545C29.2197 24.3409 28.3712 23.4394 27.2575 23.3863ZM10.3939 19.303C10.7121 18.5075 11.4545 17.9772 12.356 17.9772H22.6439C23.4924 17.9772 24.2878 18.5075 24.606 19.303L26.1439 23.3863H8.85603C10.2348 19.7272 10.3939 19.356 10.3939 19.303ZM9.91664 32.5606H8.16664V30.7045H9.91664V32.5606ZM26.8333 30.6515V32.5075H25.0833V30.6515H26.8333ZM28.1591 28.2651C28.1591 29.0075 27.5757 29.5909 26.8333 29.5909C22.803 29.5909 11.6666 29.5909 8.21967 29.5909C7.47724 29.5909 6.89391 29.0075 6.89391 28.2651V25.4545C6.89391 24.8712 7.37118 24.3939 7.95452 24.3939C19.9924 24.3939 20.7348 24.3939 27.1515 24.3939C27.7348 24.3939 28.2121 24.8712 28.2121 25.4545V28.2651H28.1591Z" fill="black"/>
<path d="M10.6061 25.1895C9.59848 25.1895 8.75 26.0379 8.75 27.0455C8.75 28.0531 9.59848 28.9016 10.6061 28.9016C11.6136 28.9016 12.4621 28.0531 12.4621 27.0455C12.4621 25.9849 11.6136 25.1895 10.6061 25.1895ZM10.6061 27.7879C10.1818 27.7879 9.81061 27.4167 9.81061 26.9925C9.81061 26.5682 10.1818 26.197 10.6061 26.197C11.0303 26.197 11.4015 26.5682 11.4015 26.9925C11.4015 27.4167 11.0303 27.7879 10.6061 27.7879Z" fill="black"/>
<path d="M24.3939 25.1895C23.3863 25.1895 22.5378 26.0379 22.5378 27.0455C22.5378 28.0531 23.3863 28.9016 24.3939 28.9016C25.4015 28.9016 26.25 28.0531 26.25 27.0455C26.25 25.9849 25.4015 25.1895 24.3939 25.1895ZM24.3939 27.7879C23.9697 27.7879 23.5984 27.4167 23.5984 26.9925C23.5984 26.5682 23.9697 26.197 24.3939 26.197C24.8181 26.197 25.1894 26.5682 25.1894 26.9925C25.1894 27.4167 24.8181 27.7879 24.3939 27.7879Z" fill="black"/>
<path d="M34.4697 0H0.530303C0.212121 0 0 0.212121 0 0.530303V5.40909C0 5.72727 0.212121 5.93939 0.530303 5.93939H1.64394V34.4697C1.64394 34.7879 1.85606 35 2.17424 35H32.8788C33.197 35 33.4091 34.7879 33.4091 34.4697V5.93939H34.4697C34.7879 5.93939 35 5.72727 35 5.40909V0.530303C35 0.212121 34.7879 0 34.4697 0ZM2.70455 10.7652H32.3485V12.197H2.70455V10.7652ZM2.70455 13.2576H32.3485V14.6894H2.70455V13.2576ZM32.2955 9.70454H2.70455V8.27273H32.3485V9.70454H32.2955ZM2.70455 33.9394V15.75H32.3485V33.9394H2.70455ZM32.2955 7.26515H2.70455V5.93939H32.3485V7.26515H32.2955ZM33.9394 4.87879C29.4848 4.87879 4.34848 4.87879 1.06061 4.87879V1.06061H33.9394V4.87879Z" fill="black"/>
</svg>
