<svg width="26" height="43" viewBox="0 0 26 43" fill="none" xmlns="http://www.w3.org/2000/svg">
<path fill-rule="evenodd" clip-rule="evenodd" d="M12.9689 38.5876C15.5665 33.7491 24.9888 18.2658 24.9888 12.9689C24.9888 6.34783 19.5901 1 12.9689 1C6.34783 1 1 6.34783 1 12.9689C1 18.2658 10.4224 33.7491 12.9689 38.5876ZM15.159 35.7863C18.5205 36.041 24.123 36.754 24.123 38.8422C24.123 41.5925 14.6497 42 12.9689 42C11.2882 42 1.86584 41.5925 1.86584 38.8422C1.86584 36.754 7.46832 36.041 10.7789 35.7863L11.2373 36.6012C8.28323 36.754 3.03727 37.3143 2.73168 38.8422C2.78261 40.6758 11.6957 41.1851 12.9689 41.1851C14.395 41.1851 22.9515 40.6758 23.2062 38.8422C22.9006 37.3652 17.6547 36.754 14.7006 36.6012L15.159 35.7863ZM12.9689 36.8559C16.3304 30.846 24.123 17.6547 24.123 12.9689C24.123 6.80621 19.1317 1.81491 12.9689 1.81491C6.80621 1.81491 1.81491 6.80621 1.81491 12.9689C1.81491 17.6547 9.65838 30.846 12.9689 36.8559ZM12.9689 7.77391C15.872 7.77391 18.2149 10.1168 18.2149 12.9689C18.2149 15.872 15.872 18.2149 12.9689 18.2149C10.1168 18.2149 7.77391 15.872 7.77391 12.9689C7.77391 10.1168 10.1168 7.77391 12.9689 7.77391ZM12.9689 8.58882C15.4137 8.58882 17.4 10.5242 17.4 12.9689C17.4 15.4137 15.4137 17.4 12.9689 17.4C10.5752 17.4 8.58882 15.4137 8.58882 12.9689C8.58882 10.5242 10.5752 8.58882 12.9689 8.58882Z" fill="black" stroke="black" stroke-width="0.3"/>
</svg>
