<svg width="454" height="74" viewBox="0 0 454 74" fill="none" xmlns="http://www.w3.org/2000/svg">
<path d="M80.4785 7.8C80.4785 3.5 73.2785 1.1 69.4785 1.1C62.7785 1.1 51.3785 3 44.9785 4.3C43.7785 4 42.4785 3.9 41.3785 3.9C39.7785 3.9 38.3785 4.19999 37.7785 4.9C32.5785 11 2.67852 60.4 1.27852 62.6C0.778516 63.5 0.478515 64.2 0.478515 64.8C0.478515 66.3 1.87852 67.4 4.17852 70.2C5.37852 71.6 7.57852 73.4 9.37852 73.4C10.1785 73.4 10.8785 73 11.3785 72.1C13.8785 67.5 19.1785 58.5 26.5785 47.2C36.0785 43.3 47.3785 42.3 54.9785 41.1C57.0785 40.8 57.6785 39.9 57.6785 39C57.6785 36.2 51.9785 34.1 49.6785 34.1C47.7785 34 41.1785 34.4 34.7785 35C38.9785 28.8 43.6785 22.3 48.6785 15.6C63.5785 10 78.9785 10.8 80.1785 8.7C80.3785 8.39999 80.4785 8.2 80.4785 7.8ZM91.3652 38.8C91.3652 31.3 87.0652 31.1 84.0652 28.4C82.9652 27.4 80.5652 24.7 77.2652 24.7C76.5652 24.7 75.7652 24.8 74.8652 25.2C68.3652 27.8 50.8652 44.2 50.8652 57.8C50.8652 62.8 55.0652 65.9 56.3652 67.3C58.1652 69.3 61.3652 72 65.1652 72C75.0652 72 90.9652 50.6 91.3652 39.6C91.3652 39.3 91.3652 39.1 91.3652 38.8ZM85.3652 37.3C85.3652 44.1 68.7652 65.6 63.8652 65.6C61.1652 65.6 59.9652 64.3 59.9652 62.3C59.9652 54.4 76.9652 35.2 83.4652 35.2C84.7652 35.2 85.3652 36 85.3652 37.3ZM128.865 38.8C128.865 31.3 124.565 31.1 121.565 28.4C120.465 27.4 118.065 24.7 114.765 24.7C114.065 24.7 113.265 24.8 112.365 25.2C105.865 27.8 88.3652 44.2 88.3652 57.8C88.3652 62.8 92.5652 65.9 93.8652 67.3C95.6652 69.3 98.8652 72 102.665 72C112.565 72 128.465 50.6 128.865 39.6C128.865 39.3 128.865 39.1 128.865 38.8ZM122.865 37.3C122.865 44.1 106.265 65.6 101.365 65.6C98.6652 65.6 97.4652 64.3 97.4652 62.3C97.4652 54.4 114.465 35.2 120.965 35.2C122.265 35.2 122.865 36 122.865 37.3ZM192.765 9.29999C192.765 6.99999 187.065 2.5 184.965 2.5C184.465 2.5 183.965 2.7 183.565 3.2C175.865 12.4 168.565 22.8 162.465 32.2C160.265 30.7 160.365 25.8 154.465 25.8C145.765 25.8 125.865 48.9 125.865 61.1C125.865 64.5 129.065 66.5 130.365 68.3C131.865 70.5 133.665 71.8 137.065 71.8C139.665 71.8 144.565 68.4 147.765 65.7C149.265 69 152.665 72.7 156.965 72.7C166.865 72.7 178.565 55 179.665 53C179.865 52.7 179.865 52.3 179.865 52C179.865 50.7 178.965 49.6 177.965 49.6C177.665 49.6 177.265 49.7 176.965 50C175.065 52.2 162.965 66.5 158.665 66.5C157.665 66.5 157.165 65.9 157.165 64.8C157.165 56.3 178.965 24.5 191.265 12C192.265 11 192.765 10.2 192.765 9.29999ZM158.165 38.9C155.265 43.5 152.265 48.5 150.865 50.9C145.165 61.4 139.365 65.8 136.965 65.8C136.265 65.8 135.665 65.3 135.665 64.6C135.665 56.9 150.865 39.6 154.965 38C155.465 37.8 155.865 37.7 156.265 37.7C156.865 37.7 157.765 38.1 158.165 38.9ZM256.299 21.6C256.299 14.8 251.999 12.7 249.599 7.8C247.199 2.79999 244.399 0.499995 240.499 0.499995C230.799 0.499995 215.199 13.6 212.399 22.7C211.599 25.5 211.199 28 211.199 30.4C211.199 40.1 217.199 46.8 220.999 50.1C223.499 52.2 224.699 54.9 224.699 57.4C224.699 62.3 220.199 64.6 215.899 64.6C211.899 64.7 205.099 60.3 204.199 54.4C203.599 50.4 198.899 46.7 195.199 46.7C192.999 46.7 191.299 48.2 191.299 50.5C191.299 54.4 195.599 60.7 205.999 67.4C211.399 70.8 216.999 72.4 222.099 72.4C229.399 72.4 239.599 68.2 239.599 59.6C239.599 50.3 226.199 40.4 226.199 32.4C226.199 26.6 237.699 14.2 243.899 14.2C245.399 14.2 246.299 15 246.299 16.2C246.299 17.4 245.399 19.1 243.799 20.7C241.899 22.6 240.299 25.4 240.299 28.8C240.299 31.7 242.499 38.4 246.099 38.4C250.999 38.4 256.299 27.1 256.299 21.6ZM275.522 37.4C275.522 40.1 264.422 52.5 257.522 52.3C260.122 48.5 269.922 36.9 275.022 36.9C275.322 36.9 275.522 37.1 275.522 37.4ZM326.522 52.6C326.522 51.8 326.222 51.3 325.822 51.3C325.622 51.3 325.422 51.4 325.222 51.6C324.222 52.8 311.722 65.8 306.022 65.8C304.822 65.8 304.022 65.3 304.022 64C304.022 58.2 318.222 40.7 324.722 35.2C325.622 34.4 326.022 33.3 326.022 32.1C326.022 29.8 323.622 24.1 321.022 24.1C320.822 24.1 320.622 24.1 320.422 24.2C318.922 24.4 312.222 25.8 307.922 25.8C307.622 25.8 307.422 25.8 307.122 25.8C308.222 24 309.522 21.4 309.522 19.7C309.522 18.5 308.822 18.2 307.722 18.2C302.122 18.1 298.222 24.4 295.522 28.5C294.722 29.7 294.522 31 294.522 32.1C294.522 33.4 294.822 34.5 294.822 35.4C294.822 35.6 294.722 35.8 294.722 36C294.222 37.3 285.522 50.2 281.622 54.5C279.222 57.2 269.822 68 258.322 68C254.322 68 252.722 66.2 252.722 63.5C252.722 62.4 253.022 61.1 253.522 59.7H253.822C264.922 59.8 284.122 49.4 284.122 36.7C284.122 33.4 281.922 31 280.722 29.1C277.822 24.8 277.122 24.1 274.222 24.1C265.222 24.3 243.822 47.4 243.822 56.9C243.822 63.8 247.022 65.7 249.222 68.2C252.522 71.9 257.122 73.9 260.522 73.9C276.822 73.9 295.522 43.9 301.522 36C302.622 36.2 306.822 36.2 309.722 36.2C303.922 42.6 294.322 52.8 294.322 62C294.322 68.1 300.222 72.5 304.322 72.5C310.622 72.5 322.122 62.1 325.522 55.7C326.222 54.5 326.522 53.4 326.522 52.6ZM366.629 29.5C366.729 29.2 366.829 28.8 366.829 28.5C366.829 27.1 365.629 25.7 364.129 25.7C362.829 25.7 361.429 26.6 360.129 28.8C356.729 34.7 334.329 66.7 329.629 66.7C327.929 66.7 327.529 65.3 327.529 63.6C327.529 63.3 327.529 62.9 327.529 62.6C327.929 57.4 343.629 37.1 346.329 34.9C347.329 34.1 347.829 33.2 347.829 32.3C347.829 30 342.129 25.2 340.029 25.2C339.429 25.2 338.629 25.5 337.829 26.2C335.629 27.9 318.529 51.2 318.529 59.2C318.529 61.1 319.429 63.2 320.429 64.8C321.129 65.9 322.029 67 322.629 68.2C323.329 69.8 325.529 72.8 329.629 72.8C331.329 72.8 333.429 72.2 335.829 70.8C346.529 64.6 365.829 31.7 366.629 29.5ZM400.034 13.3C400.234 10.2 397.834 7.3 391.734 7.3C385.534 7.3 382.734 10 382.534 13C382.234 16.4 385.534 20 391.134 20C396.434 20 399.834 16.6 400.034 13.3ZM388.334 53.3C388.434 51.6 387.934 50.1 387.034 50.1C386.734 50.1 386.434 50.3 386.034 50.7C380.034 57.5 369.634 67 365.334 67C365.034 67 364.834 66.6 364.834 66C365.134 62 374.034 46.1 385.634 33.1C386.434 32.2 386.734 31.5 386.834 30.8C387.034 28.5 380.134 24.8 377.934 24.8C376.934 24.8 375.934 25.3 374.734 26.9C361.534 44.2 356.334 54.6 355.834 61.2C355.434 66.6 360.434 72.4 365.634 72.4C372.134 72.4 386.334 58 387.734 55.6C388.134 54.9 388.334 54.1 388.334 53.3ZM419.264 53.9C419.264 52.8 419.364 51.8 418.264 51.8C418.164 51.8 418.064 51.8 417.864 51.9C413.864 54 406.964 64.8 394.564 64.8C391.264 64.8 388.864 61.5 388.864 59.8C388.864 53.9 401.164 41.8 406.464 38.8C404.864 41.4 403.864 43.6 403.864 45.3C403.864 47.4 405.864 50 406.964 50C410.864 50 417.264 41.3 417.264 38.4C417.264 35.4 415.664 32.4 414.364 31.1C413.064 29.8 412.664 25.3 408.764 25.3C400.764 25.3 381.664 45.1 381.064 53.2C381.064 53.7 381.064 54.1 381.064 54.6C381.064 59.8 382.564 60.7 384.764 64.7C386.964 68.9 390.464 71.5 395.664 71.5C406.964 71.5 419.264 56.3 419.264 54.2C419.264 54.1 419.264 54 419.264 53.9ZM453.568 56.9C453.568 55.5 452.268 54.3 451.268 54.3C451.168 54.3 450.968 54.3 450.868 54.4C447.768 56.3 438.868 68 427.268 68C423.268 68 421.668 66.2 421.668 63.5C421.668 62.4 421.968 61.1 422.468 59.7C422.568 59.7 422.668 59.7 422.768 59.7C433.868 59.7 453.068 49.4 453.068 36.7C453.068 33.4 450.868 31 449.668 29.1C446.768 24.8 446.068 24.1 443.168 24.1C434.168 24.3 412.768 47.4 412.768 56.9C412.768 63.8 415.968 65.7 418.168 68.2C421.468 71.9 426.068 73.9 429.468 73.9C436.368 73.9 449.368 65 453.368 57.9C453.468 57.5 453.568 57.2 453.568 56.9ZM444.468 37.4C444.468 40.1 433.368 52.5 426.468 52.3C429.068 48.5 438.868 36.9 443.968 36.9C444.268 36.9 444.468 37.1 444.468 37.4Z" fill="black"/>
</svg>
