<svg width="852" height="348" viewBox="0 0 852 348" fill="none" xmlns="http://www.w3.org/2000/svg">
<path d="M251.047 72.9C251.047 56.45 241.597 43.85 232.147 33C216.397 14.1 218.497 0.0999838 188.397 0.0999838C143.597 0.0999838 62.0467 34.4 52.9467 42.45C49.7967 45.25 48.7467 48.05 48.7467 50.85C48.7467 59.95 56.0967 78.85 66.9467 78.85C69.0467 78.85 71.8467 77.8 74.2967 76.05C78.4967 72.9 89.6967 67.3 101.597 61.7C69.0467 107.55 7.44668 199.6 2.19668 210.45C0.796679 213.25 0.0966792 216.4 0.0966792 219.2C0.0966792 230.4 8.49668 241.95 14.4467 248.95C18.2967 253.15 22.4967 256.3 26.6967 256.3C31.5967 256.3 36.8467 252.1 41.0467 241.25C46.9967 227.25 63.7967 200.3 83.3967 170.9C94.5967 174.75 105.797 176.5 116.997 176.5C184.897 176.5 249.297 113.85 251.047 75.35C251.047 74.65 251.047 73.95 251.047 72.9ZM215.697 54.35C215.697 100.9 138.347 133.8 105.797 138C135.897 94.6 165.297 54.35 167.747 50.85C169.147 48.4 169.847 46.3 169.847 44.2C169.847 42.1 169.147 40.35 167.747 38.6C175.097 37.2 182.797 36.5 189.447 36.5C202.747 36.5 215.697 38.6 215.697 54.35ZM339.553 204.15C339.553 199.25 335.003 195.05 331.503 195.05C331.153 195.05 330.453 195.05 330.103 195.4C319.253 202.05 288.103 243 247.503 243C233.503 243 227.903 236.7 227.903 227.25C227.903 223.4 228.953 218.85 230.703 213.95C231.053 213.95 231.403 213.95 231.753 213.95C270.603 213.95 337.803 177.9 337.803 133.45C337.803 121.9 330.103 113.5 325.903 106.85C315.753 91.8 313.303 89.35 303.153 89.35C271.653 90.05 196.753 170.9 196.753 204.15C196.753 228.3 207.953 234.95 215.653 243.7C227.203 256.65 243.303 263.65 255.203 263.65C279.353 263.65 324.853 232.5 338.853 207.65C339.203 206.25 339.553 205.2 339.553 204.15ZM307.703 135.9C307.703 145.35 268.853 188.75 244.703 188.05C253.803 174.75 288.103 134.15 305.953 134.15C307.003 134.15 307.703 134.85 307.703 135.9ZM463.642 140.8C463.642 114.55 448.592 113.85 438.092 104.4C434.242 100.9 425.842 91.45 414.292 91.45C411.842 91.45 409.042 91.8 405.892 93.2C383.142 102.3 321.892 159.7 321.892 207.3C321.892 224.8 336.592 235.65 341.142 240.55C347.442 247.55 358.642 257 371.942 257C406.592 257 462.242 182.1 463.642 143.6C463.642 142.55 463.642 141.85 463.642 140.8ZM442.642 135.55C442.642 159.35 384.542 234.6 367.392 234.6C357.942 234.6 353.742 230.05 353.742 223.05C353.742 195.4 413.242 128.2 435.992 128.2C440.542 128.2 442.642 131 442.642 135.55ZM614.492 144.3C614.142 127.85 607.142 124.7 603.292 119.8C597.342 113.15 595.242 102.3 582.292 102.3C574.242 102.3 559.192 110 550.092 116.65C551.142 113.85 553.942 106.85 553.942 103.7C553.942 97.4 546.942 98.8 540.292 93.9C536.442 91.1 533.292 89.35 530.142 89.35C526.292 89.35 523.142 92.15 519.992 98.45C515.442 107.55 392.242 296.2 386.292 306C384.192 309.15 383.142 314.4 383.142 320C383.142 333.65 387.342 347.65 400.642 347.65C408.692 347.65 418.492 307.4 481.842 218.85C485.692 225.5 490.942 231.8 496.542 237.05C502.842 243 509.142 246.85 518.242 246.85C560.242 246.85 615.192 169.15 614.492 144.3ZM584.392 129.6C584.392 150.95 535.392 213.95 515.792 213.95C506.692 213.95 502.842 210.1 502.842 204.5C502.842 181.4 563.742 122.6 577.742 122.6C582.642 122.6 584.392 125.4 584.392 129.6ZM780.665 58.2C780.665 48.05 771.215 43.85 763.515 37.2C756.515 30.9 748.815 23.2 740.065 23.2C737.265 23.2 734.465 23.9 731.665 25.65C706.465 40.35 600.415 152.35 600.415 220.95C600.415 234.6 616.865 244.05 625.615 252.8C629.815 257 636.115 259.45 644.165 259.45C662.365 259.45 693.515 246.15 726.065 206.95C728.865 203.8 729.915 199.95 729.915 196.45C729.915 191.55 727.465 187.35 723.965 187.35C722.215 187.35 720.465 188.4 718.365 190.85C690.365 223.4 662.715 236.7 648.365 236.7C640.315 236.7 636.115 233.55 636.115 225.5C636.115 212.2 644.165 192.6 655.715 171.95C694.565 157.95 762.465 119.45 779.615 64.5C780.315 62.05 780.665 59.95 780.665 58.2ZM752.315 66.95C752.315 75.35 713.465 126.45 676.365 139.4C703.315 101.25 735.865 67.3 750.915 65.55C751.265 65.55 751.265 65.55 751.265 65.55C751.965 65.55 752.315 65.9 752.315 66.95ZM851.565 204.15C851.565 199.25 847.015 195.05 843.515 195.05C843.165 195.05 842.465 195.05 842.115 195.4C831.265 202.05 800.115 243 759.515 243C745.515 243 739.915 236.7 739.915 227.25C739.915 223.4 740.965 218.85 742.715 213.95C743.065 213.95 743.415 213.95 743.765 213.95C782.615 213.95 849.815 177.9 849.815 133.45C849.815 121.9 842.115 113.5 837.915 106.85C827.765 91.8 825.315 89.35 815.165 89.35C783.665 90.05 708.765 170.9 708.765 204.15C708.765 228.3 719.965 234.95 727.665 243.7C739.215 256.65 755.315 263.65 767.215 263.65C791.365 263.65 836.865 232.5 850.865 207.65C851.215 206.25 851.565 205.2 851.565 204.15ZM819.715 135.9C819.715 145.35 780.865 188.75 756.715 188.05C765.815 174.75 800.115 134.15 817.965 134.15C819.015 134.15 819.715 134.85 819.715 135.9Z" fill="white"/>
</svg>
