<svg width="870" height="233" viewBox="0 0 870 233" fill="none" xmlns="http://www.w3.org/2000/svg">
<path d="M234.577 26.9C234.577 12.5 212.977 9.79998 202.177 6.19999C193.177 3.49999 188.977 0.499996 184.777 0.499996C182.077 0.499996 179.377 1.7 175.477 4.99999C169.177 10.4 93.5773 97.4 43.7773 157.1C37.1773 158.6 32.0773 160.1 29.9773 161C27.5773 161.6 26.9773 163.4 26.9773 165.5C26.9773 168.2 28.1773 171.5 29.0773 174.8C15.2773 191.9 5.07734 204.8 1.77734 209.9C0.877342 211.7 0.277343 212.9 0.277343 214.1C0.277343 217.4 4.17734 219.8 11.3773 225.5C14.9773 228.8 18.2773 230.6 20.9773 230.6C23.9773 230.6 26.3773 228.8 29.0773 224.6C30.5773 221.9 46.7773 201.5 68.0773 174.8C95.3773 166.4 121.777 161.6 145.477 159.2C141.277 173 137.377 185 134.677 192.2C131.677 200 129.877 205.7 129.877 210.2C129.877 223.1 153.877 231.2 164.377 231.2C174.577 231.2 179.977 225.5 182.677 216.2C188.077 196.7 218.977 76.4 233.677 32.9C234.277 30.5 234.577 28.7 234.577 26.9ZM180.277 43.7C175.177 61.4 164.377 98.3 154.177 131.6C140.677 134.9 115.777 140.3 91.7773 145.7C124.177 106.1 160.777 62.6 180.277 43.7ZM408.753 102.8C409.053 101.3 409.053 100.1 409.053 99.2C409.053 95.6 408.153 87.8 403.053 87.8C400.953 87.8 399.153 89.3 397.653 91.4C395.853 93.8 394.353 96.5 392.853 99.2C380.853 122 331.053 197 315.453 203.9C313.353 204.8 311.553 205.4 310.053 205.4C306.753 205.4 304.953 202.7 304.953 198.5C304.953 194 306.753 188.6 309.453 182.9C312.453 176.9 318.753 166.7 324.753 157.4C327.753 152.6 330.753 148.1 332.853 144.5C335.253 140.9 337.053 137.9 337.653 136.4C338.253 134.6 338.853 132.8 338.853 131.3C338.853 124.4 321.453 115.1 315.453 115.1C312.153 115.1 309.453 117.5 306.153 123.2C297.753 137 250.653 201.8 239.853 203.6C238.953 203.6 238.053 203.6 237.153 203.6C233.553 203.6 232.653 202.1 232.653 200C232.653 198.5 233.253 196.4 233.853 194.6C235.953 189.5 269.553 131.9 295.953 106.1C297.753 104.6 298.653 102.8 298.653 101C298.653 98.6 296.553 96.2 294.453 94.7C291.453 92.3 287.853 91.1 284.853 88.7C282.153 86.6 280.053 84.2 276.153 84.2C274.053 84.2 271.953 84.8 268.953 86.3C258.753 91.1 212.853 153.8 208.653 176.3C207.753 180.5 207.453 184.1 207.453 187.4C207.453 194.9 209.253 200 211.953 203.9C214.353 207.5 217.653 210.5 220.953 213.2C226.053 218 232.053 223.1 239.253 223.1C252.753 223.1 274.353 195.5 282.153 185.3C282.453 201.2 285.753 208.1 293.253 213.8C299.553 218.9 305.253 225.5 314.253 225.5C319.653 225.5 325.953 222.8 333.753 216.2C358.053 194.6 406.653 129.8 408.753 102.8ZM487.027 122C478.027 135.2 430.627 203 414.727 203C412.927 203 412.027 201.5 412.027 199.1C412.027 181.4 463.327 117.8 480.427 117.8C483.127 117.8 485.227 119 487.027 122ZM652.927 168.8C652.927 166.4 652.027 164.9 650.827 164.9C650.227 164.9 649.627 165.2 649.027 165.8C646.027 169.4 608.527 208.4 591.427 208.4C587.827 208.4 585.727 206.9 585.727 203C585.727 185.6 628.027 133.1 647.527 116.6C650.227 114.2 651.427 110.9 651.427 107.3C651.427 100.4 644.227 83.3 636.427 83.3C635.827 83.3 635.227 83.3 634.627 83.6C630.427 84.2 610.027 88.4 597.127 88.4C596.227 88.4 595.627 88.4 594.727 88.4C598.027 83 602.227 75.2 602.227 70.1C602.227 66.5 600.127 65.6 596.527 65.6C579.727 65.3 568.027 84.2 559.927 96.5C557.527 100.1 556.927 104 556.927 107.3C556.927 111.2 557.827 114.5 557.827 117.2C557.827 117.8 557.827 118.4 557.527 119C551.527 134.9 508.327 203.9 484.027 203.9C480.727 203.9 476.827 200.9 476.827 193.7C476.827 187.4 518.827 132.5 527.227 124.4C529.327 122.3 530.227 119.9 530.227 117.2C530.227 107.6 518.527 96.2 508.927 96.2C505.927 96.2 503.527 97.4 501.427 99.8C500.227 101.3 497.827 104.9 494.527 110.3C492.427 104 489.127 99.2 486.127 97.1C477.727 89.9 472.027 87.5 467.227 87.5C464.827 87.5 462.427 88.4 460.027 89.3C441.127 97.4 383.527 151.1 383.527 193.7C383.527 203.9 391.027 203.6 395.827 214.1C400.327 224.6 406.327 225.8 411.427 225.8C419.227 225.8 433.327 216.2 446.527 204.2C449.827 218.3 458.227 233 475.027 233C500.227 233 552.127 172.1 577.927 119C581.227 119.6 593.827 119.6 602.527 119.6C585.127 138.8 556.327 169.4 556.327 197C556.327 215.3 574.027 228.5 586.327 228.5C605.227 228.5 639.727 197.3 650.227 178.1C652.027 174.5 652.927 171.2 652.927 168.8ZM831.2 38.9C831.2 32 814.1 18.5 807.8 18.5C806.3 18.5 804.8 19.1 803.6 20.6C780.5 48.2 758.6 79.4 740.3 107.6C733.7 103.1 734 88.4 716.3 88.4C690.2 88.4 630.5 157.7 630.5 194.3C630.5 204.5 640.1 210.5 644 215.9C648.5 222.5 653.9 226.4 664.1 226.4C671.9 226.4 686.6 216.2 696.2 208.1C700.7 218 710.9 229.1 723.8 229.1C753.5 229.1 788.6 176 791.9 170C792.5 169.1 792.5 167.9 792.5 167C792.5 163.1 789.8 159.8 786.8 159.8C785.9 159.8 784.7 160.1 783.8 161C778.1 167.6 741.8 210.5 728.9 210.5C725.9 210.5 724.4 208.7 724.4 205.4C724.4 179.9 789.8 84.5 826.7 47C829.7 44 831.2 41.6 831.2 38.9ZM727.4 127.7C718.7 141.5 709.7 156.5 705.5 163.7C688.4 195.2 671 208.4 663.8 208.4C661.7 208.4 659.9 206.9 659.9 204.8C659.9 181.7 705.5 129.8 717.8 125C719.3 124.4 720.5 124.1 721.7 124.1C723.5 124.1 726.2 125.3 727.4 127.7ZM869.33 85.7C869.33 78.5 852.83 68.9 845.63 68.9C842.63 68.9 839.63 70.7 836.33 77C802.73 140.9 754.43 195.8 740.33 206.3C736.73 209 735.23 212 735.23 214.4C735.23 217.1 737.03 219.2 740.33 219.2C741.53 219.2 743.33 218.9 744.83 218C756.53 212.6 770.63 199.1 783.83 183.8C796.13 216.5 812.03 228.2 824.63 228.2C837.23 228.2 846.83 216.5 847.13 203C847.73 148.1 861.53 94.7 864.83 92.6C868.13 90.2 869.33 87.8 869.33 85.7ZM819.53 170.3C819.53 184.7 818.33 196.4 812.63 196.4C805.73 196.4 794.63 179.3 791.93 173.9C803.03 160.4 818.63 140 824.63 131.6C821.03 143 819.53 159.8 819.53 170.3Z" fill="white"/>
</svg>
