<svg width="914" height="330" viewBox="0 0 914 330" fill="none" xmlns="http://www.w3.org/2000/svg">
<path d="M506.105 20.4785C506.105 14.1785 498.455 11.0284 489.905 11.0284C473.705 11.0284 456.605 20.4785 444.905 31.2785C436.355 39.3785 286.055 205.878 255.455 243.228C276.605 168.978 349.955 58.2785 357.605 44.3284C358.955 42.5284 359.405 41.1785 359.405 39.8285C359.405 31.7285 314.855 11.9285 305.855 11.9285C300.905 11.9285 295.955 13.7284 290.555 18.6785C276.155 31.7285 145.655 177.078 83.1047 238.728C107.405 191.028 180.755 78.5285 205.505 38.4784C206.855 36.2284 207.305 33.9784 207.305 31.7285C207.305 22.2785 198.305 12.8285 195.155 11.9285C169.505 5.62846 156.455 0.678447 149.255 0.678447C146.105 0.678447 144.305 1.57846 142.955 3.82846C134.405 19.5784 6.60469 243.678 3.45469 251.328C1.65469 255.378 0.304687 258.528 0.304687 263.928C0.304687 286.878 12.4547 308.928 32.7047 320.178C40.3547 324.678 45.7547 327.828 50.7047 327.828C55.2047 327.828 59.7047 325.128 65.1047 319.278C84.0047 298.128 196.955 176.178 240.605 139.278C228.005 173.028 184.355 266.628 180.755 276.528C179.855 280.128 179.405 283.278 179.405 285.978C179.405 303.978 214.955 323.778 231.605 323.778C240.605 323.778 250.055 320.178 258.155 309.378C322.055 228.378 417.455 116.778 498.905 33.0785C503.855 28.1284 506.105 23.6284 506.105 20.4785ZM539.602 177.528C539.602 143.778 520.252 142.878 506.752 130.728C501.802 126.228 491.002 114.078 476.152 114.078C473.002 114.078 469.402 114.528 465.352 116.328C436.102 128.028 357.352 201.828 357.352 263.028C357.352 285.528 376.252 299.478 382.102 305.778C390.202 314.778 404.602 326.928 421.702 326.928C466.252 326.928 537.802 230.628 539.602 181.128C539.602 179.778 539.602 178.878 539.602 177.528ZM512.602 170.778C512.602 201.378 437.902 298.128 415.852 298.128C403.702 298.128 398.302 292.278 398.302 283.278C398.302 247.728 474.802 161.328 504.052 161.328C509.902 161.328 512.602 164.928 512.602 170.778ZM730.402 239.628C730.402 236.028 729.052 233.778 727.252 233.778C726.352 233.778 725.452 234.228 724.552 235.128C720.052 240.528 663.802 299.028 638.152 299.028C632.752 299.028 629.152 296.778 629.152 290.928C629.152 264.828 693.052 186.078 722.302 161.328C726.352 157.728 728.152 152.778 728.152 147.378C728.152 137.028 717.352 111.378 705.652 111.378C704.752 111.378 703.852 111.378 702.952 111.828C696.202 112.728 666.052 119.028 646.702 119.028C645.352 119.028 644.452 119.028 643.102 119.028C648.052 110.928 653.902 99.2285 653.902 91.5785C653.902 86.1784 650.752 84.8285 645.802 84.8285C620.602 84.3784 603.052 112.728 590.902 131.178C587.302 136.578 586.402 142.428 586.402 147.378C586.402 153.228 587.752 158.178 587.752 162.228C587.752 163.128 587.302 164.028 587.302 164.928C585.052 171.228 518.452 272.478 504.052 290.028C500.452 294.078 499.102 298.128 499.102 301.728C499.102 308.028 504.952 312.528 510.802 312.528C514.402 312.528 518.452 311.178 521.152 307.578C547.702 276.978 614.752 164.478 617.902 164.928C622.852 165.828 641.752 165.828 654.802 165.828C628.702 194.628 585.502 240.528 585.502 281.928C585.502 309.378 612.052 329.178 630.502 329.178C658.852 329.178 710.602 282.378 725.902 253.578C729.052 248.178 730.402 243.228 730.402 239.628ZM913.959 158.178C913.959 144.228 908.109 144.228 904.959 134.778C902.709 128.478 897.759 112.728 877.059 112.728C870.309 112.728 862.209 114.078 852.309 118.128C865.809 99.2285 886.059 70.4285 898.659 54.2285C900.459 51.9785 901.359 49.2785 901.359 46.5784C901.359 29.4785 873.009 12.8285 864.009 12.8285C862.659 12.8285 862.209 13.2784 861.759 13.7284C848.709 39.8285 674.109 287.778 666.459 298.578C664.209 302.178 662.859 304.878 662.859 307.578C662.859 317.028 687.609 329.178 696.159 329.178C700.659 329.178 705.159 326.928 708.309 320.628C716.859 302.628 736.209 272.028 760.059 240.978C767.709 274.278 772.659 329.178 819.459 329.178C846.909 329.178 879.759 299.478 894.609 271.578C895.959 268.878 897.759 266.178 897.759 263.478C897.759 259.878 895.959 252.678 893.259 252.678C892.359 252.678 891.009 253.128 889.659 254.478C885.609 257.628 851.409 293.628 834.759 293.628C813.159 293.628 812.259 255.378 812.259 244.128C857.259 237.828 913.959 192.828 913.959 158.178ZM890.559 139.728C890.559 158.628 837.009 212.178 781.659 213.978C800.559 191.028 850.059 133.878 882.909 132.978C888.309 132.978 890.559 135.678 890.559 139.728Z" fill="white"/>
</svg>
