<svg width="527" height="170" viewBox="0 0 527 170" fill="none" xmlns="http://www.w3.org/2000/svg">
<path d="M172.274 19.66C172.274 9.09999 156.434 7.11999 148.514 4.48C141.914 2.49999 138.834 0.299997 135.754 0.299997C133.774 0.299997 131.794 1.18 128.934 3.59999C124.314 7.56 68.8739 71.36 32.3539 115.14C27.5139 116.24 23.7739 117.34 22.2339 118C20.4739 118.44 20.0339 119.76 20.0339 121.3C20.0339 123.28 20.9139 125.7 21.5739 128.12C11.4539 140.66 3.97391 150.12 1.55391 153.86C0.893905 155.18 0.453905 156.06 0.453905 156.94C0.453905 159.36 3.3139 161.12 8.59391 165.3C11.2339 167.72 13.6539 169.04 15.6339 169.04C17.8339 169.04 19.5939 167.72 21.5739 164.64C22.6739 162.66 34.5539 147.7 50.1739 128.12C70.1939 121.96 89.5539 118.44 106.934 116.68C103.854 126.8 100.994 135.6 99.0139 140.88C96.8139 146.6 95.4939 150.78 95.4939 154.08C95.4939 163.54 113.094 169.48 120.794 169.48C128.274 169.48 132.234 165.3 134.214 158.48C138.174 144.18 160.834 55.96 171.614 24.06C172.054 22.3 172.274 20.98 172.274 19.66ZM132.454 31.98C128.714 44.96 120.794 72.02 113.314 96.44C103.414 98.86 85.1539 102.82 67.5539 106.78C91.3139 77.74 118.154 45.84 132.454 31.98ZM256.223 28.24C256.223 19 245.663 12.84 237.743 12.84C234.443 12.84 232.243 13.94 231.143 16.58C223.443 34.62 153.483 111.62 153.483 131.42C153.483 151.22 163.823 153.42 171.303 160.9C175.703 165.3 178.563 168.16 186.043 168.16C207.823 168.16 248.523 116.68 248.523 97.54C248.523 88.3 246.323 83.9 242.583 80.16C238.183 75.76 233.783 68.94 224.103 68.94C223.443 68.94 223.003 68.94 222.343 68.94C239.943 41.66 256.223 34.62 256.223 28.24ZM226.743 89.84C226.743 105.68 189.343 147.7 179.883 147.7C174.823 147.7 172.623 145.5 172.623 141.54C172.623 125.7 210.903 83.68 219.703 83.68C224.763 83.68 226.743 86.1 226.743 89.84ZM332.147 93.36C332.147 76.86 322.687 76.42 316.087 70.48C313.667 68.28 308.387 62.34 301.127 62.34C299.587 62.34 297.827 62.56 295.847 63.44C281.547 69.16 243.047 105.24 243.047 135.16C243.047 146.16 252.287 152.98 255.147 156.06C259.107 160.46 266.147 166.4 274.507 166.4C296.287 166.4 331.267 119.32 332.147 95.12C332.147 94.46 332.147 94.02 332.147 93.36ZM318.947 90.06C318.947 105.02 282.427 152.32 271.647 152.32C265.707 152.32 263.067 149.46 263.067 145.06C263.067 127.68 300.467 85.44 314.767 85.44C317.627 85.44 318.947 87.2 318.947 90.06ZM446.547 119.1C446.547 117.12 445.227 116.02 443.687 116.02C442.367 116.02 440.827 116.68 439.507 118.22C435.767 122.62 408.487 153.2 397.927 152.98C395.727 152.98 394.627 151.66 394.627 149.46C394.627 136.26 429.827 91.38 437.747 83.68C439.287 82.14 439.947 80.6 439.947 79.06C439.947 72.24 429.167 64.32 422.787 64.32C421.247 64.32 419.707 64.98 419.047 66.3C415.307 72.68 373.067 129.22 353.487 148.14C351.507 150.12 349.527 150.78 348.207 150.78C346.227 150.78 345.567 149.9 345.567 148.14C345.567 147.04 345.787 145.5 346.447 143.96C350.407 131.86 368.007 106.34 392.207 83.46C394.187 81.7 394.847 79.94 394.847 78.18C394.847 72.68 382.087 65.42 376.807 65.42C374.387 65.42 371.967 66.52 369.767 69.38C357.007 85 330.387 116.68 326.427 130.98C325.767 133.18 325.547 135.38 325.547 137.8C325.547 150.56 334.127 165.08 345.787 164.86C355.247 164.86 368.887 147.48 374.827 140.88C374.827 141.54 374.827 141.98 374.827 142.42C374.827 154.08 378.347 168.16 393.967 167.94C410.907 167.72 437.747 135.82 445.667 122.18C446.327 120.86 446.547 119.98 446.547 119.1ZM526.618 71.36C526.618 68.28 525.078 63 521.338 63.22C519.578 63.22 509.458 63.66 496.918 63.88C506.158 52 513.638 43.2 516.498 40.78C518.918 38.58 520.018 36.6 520.018 34.84C520.018 29.78 504.838 20.1 500.218 20.1C498.678 20.1 497.138 20.76 496.258 22.3C493.178 27.8 480.858 44.52 467.658 64.1C467.218 64.1 466.778 64.1 466.558 64.1C459.078 64.1 451.598 63.66 444.118 63.66C441.698 63.66 440.598 64.98 440.598 66.74C440.598 71.14 446.318 78.4 452.038 78.4C452.258 78.4 452.698 78.62 453.138 78.62C454.678 78.62 456.218 78.4 458.198 78.4C445.218 97.98 433.118 118.66 428.278 132.96C427.398 136.04 426.738 139.12 426.738 142.2C426.738 147.48 428.718 152.76 434.438 158.26C441.038 164.64 446.978 167.28 452.698 167.28C465.898 167.28 484.378 149.02 492.738 139.78C495.378 136.92 497.578 130.76 497.578 127.02C497.578 125.26 497.138 124.16 496.038 124.16C495.158 124.16 494.058 125.04 492.298 126.8C484.158 135.38 461.938 156.5 451.818 156.5C447.638 156.5 445.658 153.86 445.658 149.9C445.658 135.6 468.318 101.5 488.118 75.1C494.718 74.44 501.538 74 507.698 74C513.418 74 518.918 74.44 523.318 75.54C523.758 75.54 523.758 75.54 523.978 75.54C525.738 75.54 526.618 73.56 526.618 71.36Z" fill="#F5F4F4"/>
</svg>
