<svg width="1033" height="268" viewBox="0 0 1033 268" fill="none" xmlns="http://www.w3.org/2000/svg">
<path d="M213.012 65C213.012 52.05 204.962 40.15 195.512 31.4C184.662 21.6 175.912 0.599987 158.412 0.599987C115.712 0.599987 0.91211 116.45 0.91211 197.3C0.91211 223.2 9.31211 227.75 26.8121 245.95C42.9121 262.75 56.2121 266.6 77.2121 266.6C133.212 266.6 175.912 200.45 187.462 172.1C190.962 163.35 192.012 156.7 192.012 151.45C192.012 143.75 189.212 140.25 186.062 140.25C184.662 140.25 183.262 140.95 182.212 142.35C176.962 149 105.212 232.65 75.1121 241.05C71.6121 241.75 68.4621 242.45 65.6621 242.45C50.9621 242.45 44.3121 229.85 44.3121 212.7C44.3121 164.05 127.962 49.6 172.412 49.6C174.512 49.6 175.212 50.3 175.212 52.05C175.212 53.8 174.512 55.9 173.112 58.35C167.162 69.55 140.212 85.3 140.212 104.2C140.212 116.1 148.612 131.15 162.262 131.15C165.412 131.15 169.262 130.45 173.112 128C186.762 119.95 213.012 81.8 213.012 65ZM323.227 144.8C323.227 118.55 308.177 117.85 297.677 108.4C293.827 104.9 285.427 95.45 273.877 95.45C271.427 95.45 268.627 95.8 265.477 97.2C242.727 106.3 181.477 163.7 181.477 211.3C181.477 228.8 196.177 239.65 200.727 244.55C207.027 251.55 218.227 261 231.527 261C266.177 261 321.827 186.1 323.227 147.6C323.227 146.55 323.227 145.85 323.227 144.8ZM302.227 139.55C302.227 163.35 244.127 238.6 226.977 238.6C217.527 238.6 213.327 234.05 213.327 227.05C213.327 199.4 272.827 132.2 295.577 132.2C300.127 132.2 302.227 135 302.227 139.55ZM485.627 193.45C485.627 190.3 484.927 189.25 482.827 189.25C481.427 189.25 480.377 189.6 479.327 191C471.977 201.15 440.477 235.8 427.877 235.8C423.327 236.15 420.177 231.95 420.177 227.4C420.177 214.1 439.077 181.9 474.777 137.45C477.577 133.95 478.977 131.15 478.977 128.7C478.977 121.35 457.977 105.25 450.977 105.25C448.177 105.25 445.727 106.3 442.927 109.1C436.277 116.8 372.577 186.45 348.427 213.05C362.777 192.05 398.477 134.65 401.627 129.4C402.677 127.65 403.027 125.9 403.027 124.5C403.027 117.85 382.027 104.9 375.377 104.9C371.877 104.9 368.377 106.65 364.877 112.25C360.677 118.9 301.527 222.5 296.277 236.85C295.927 237.55 295.577 238.95 295.577 240C295.577 250.15 310.977 261.35 322.177 261.35C329.527 261.35 383.427 186.1 415.627 164.4C401.977 181.2 386.927 210.95 386.927 225.3C386.927 243.85 395.327 256.8 410.727 256.45C441.877 256.45 472.677 223.55 484.927 196.95C485.627 195.55 485.627 194.5 485.627 193.45ZM616.548 109.8C616.548 104.9 614.098 96.5 608.148 96.85C605.348 96.85 589.248 97.55 569.298 97.9C583.998 79 595.898 65 600.448 61.15C604.298 57.65 606.048 54.5 606.048 51.7C606.048 43.65 581.898 28.25 574.548 28.25C572.098 28.25 569.648 29.3 568.248 31.75C563.348 40.5 543.748 67.1 522.748 98.25C522.048 98.25 521.348 98.25 520.998 98.25C509.098 98.25 497.198 97.55 485.298 97.55C481.448 97.55 479.698 99.65 479.698 102.45C479.698 109.45 488.798 121 497.898 121C498.248 121 498.948 121.35 499.648 121.35C502.098 121.35 504.548 121 507.698 121C487.048 152.15 467.798 185.05 460.098 207.8C458.698 212.7 457.648 217.6 457.648 222.5C457.648 230.9 460.798 239.3 469.898 248.05C480.398 258.2 489.848 262.4 498.948 262.4C519.948 262.4 549.348 233.35 562.648 218.65C566.848 214.1 570.348 204.3 570.348 198.35C570.348 195.55 569.648 193.8 567.898 193.8C566.498 193.8 564.748 195.2 561.948 198C548.998 211.65 513.648 245.25 497.548 245.25C490.898 245.25 487.748 241.05 487.748 234.75C487.748 212 523.798 157.75 555.298 115.75C565.798 114.7 576.648 114 586.448 114C595.548 114 604.298 114.7 611.298 116.45C611.998 116.45 611.998 116.45 612.348 116.45C615.148 116.45 616.548 113.3 616.548 109.8ZM730.884 197.65C730.884 193.8 728.784 191.7 726.334 191.7C724.584 191.7 722.834 192.4 721.084 194.5C692.734 228.8 675.234 237.9 665.434 237.9C661.584 237.9 657.034 234.4 657.034 226C657.034 218.65 707.784 150.75 717.584 141.3C720.034 138.85 721.084 136.05 721.084 132.9C721.084 121.7 707.434 108.4 696.234 108.4C692.734 108.4 689.934 109.8 687.484 112.6C686.084 114.35 683.284 118.55 679.434 124.85C676.984 117.5 673.134 111.9 669.634 109.45C659.834 101.05 653.184 98.25 647.584 98.25C644.784 98.25 641.984 99.3 639.184 100.35C617.134 109.8 549.934 172.45 549.934 222.15C549.934 234.05 558.684 233.7 564.284 245.95C569.534 258.2 576.534 259.6 582.484 259.6C591.584 259.6 608.034 248.4 623.434 234.4C627.284 250.85 637.084 268 656.684 268C673.134 268 700.434 246.65 722.834 215.85C728.784 208.15 730.884 201.85 730.884 197.65ZM670.684 138.5C660.184 153.9 604.884 233 586.334 233C584.234 233 583.184 231.25 583.184 228.45C583.184 207.8 643.034 133.6 662.984 133.6C666.134 133.6 668.584 135 670.684 138.5ZM841.968 197.65C841.968 193.8 842.318 190.3 838.468 190.3C838.118 190.3 837.768 190.3 837.068 190.65C823.068 198 798.918 235.8 755.518 235.8C743.968 235.8 735.568 224.25 735.568 218.3C735.568 197.65 778.618 155.3 797.168 144.8C791.568 153.9 788.068 161.6 788.068 167.55C788.068 174.9 795.068 184 798.918 184C812.568 184 834.968 153.55 834.968 143.4C834.968 132.9 829.368 122.4 824.818 117.85C820.268 113.3 818.868 97.55 805.218 97.55C777.218 97.55 710.368 166.85 708.268 195.2C708.268 196.95 708.268 198.35 708.268 200.1C708.268 218.3 713.518 221.45 721.218 235.45C728.918 250.15 741.168 259.25 759.368 259.25C798.918 259.25 841.968 206.05 841.968 198.7C841.968 198.35 841.968 198 841.968 197.65ZM979.879 109.8C979.879 104.9 977.429 96.5 971.479 96.85C968.679 96.85 952.579 97.55 932.629 97.9C947.329 79 959.229 65 963.779 61.15C967.629 57.65 969.379 54.5 969.379 51.7C969.379 43.65 945.229 28.25 937.879 28.25C935.429 28.25 932.979 29.3 931.579 31.75C926.679 40.5 907.079 67.1 886.079 98.25C885.379 98.25 884.679 98.25 884.329 98.25C872.429 98.25 860.529 97.55 848.629 97.55C844.779 97.55 843.029 99.65 843.029 102.45C843.029 109.45 852.129 121 861.229 121C861.579 121 862.279 121.35 862.979 121.35C865.429 121.35 867.879 121 871.029 121C850.379 152.15 831.129 185.05 823.429 207.8C822.029 212.7 820.979 217.6 820.979 222.5C820.979 230.9 824.129 239.3 833.229 248.05C843.729 258.2 853.179 262.4 862.279 262.4C883.279 262.4 912.679 233.35 925.979 218.65C930.179 214.1 933.679 204.3 933.679 198.35C933.679 195.55 932.979 193.8 931.229 193.8C929.829 193.8 928.079 195.2 925.279 198C912.329 211.65 876.979 245.25 860.879 245.25C854.229 245.25 851.079 241.05 851.079 234.75C851.079 212 887.129 157.75 918.629 115.75C929.129 114.7 939.979 114 949.779 114C958.879 114 967.629 114.7 974.629 116.45C975.329 116.45 975.329 116.45 975.679 116.45C978.479 116.45 979.879 113.3 979.879 109.8ZM1032.96 96.15C1032.96 87.75 1013.71 76.55 1005.31 76.55C1001.81 76.55 998.314 78.65 994.464 86C955.264 160.55 898.914 224.6 882.464 236.85C878.264 240 876.514 243.5 876.514 246.3C876.514 249.45 878.614 251.9 882.464 251.9C883.864 251.9 885.964 251.55 887.714 250.5C901.364 244.2 917.814 228.45 933.214 210.6C947.564 248.75 966.114 262.4 980.814 262.4C995.514 262.4 1006.71 248.75 1007.06 233C1007.76 168.95 1023.86 106.65 1027.71 104.2C1031.56 101.4 1032.96 98.6 1032.96 96.15ZM974.864 194.85C974.864 211.65 973.464 225.3 966.814 225.3C958.764 225.3 945.814 205.35 942.664 199.05C955.614 183.3 973.814 159.5 980.814 149.7C976.614 163 974.864 182.6 974.864 194.85Z" fill="white"/>
</svg>
