<svg width="854" height="268" viewBox="0 0 854 268" fill="none" xmlns="http://www.w3.org/2000/svg">
<path d="M212.905 65C212.905 52.05 204.855 40.15 195.405 31.4C184.555 21.6 175.805 0.599987 158.305 0.599987C115.605 0.599987 0.804688 116.45 0.804688 197.3C0.804688 223.2 9.20469 227.75 26.7047 245.95C42.8047 262.75 56.1047 266.6 77.1047 266.6C133.105 266.6 175.805 200.45 187.355 172.1C190.855 163.35 191.905 156.7 191.905 151.45C191.905 143.75 189.105 140.25 185.955 140.25C184.555 140.25 183.155 140.95 182.105 142.35C176.855 149 105.105 232.65 75.0047 241.05C71.5047 241.75 68.3547 242.45 65.5547 242.45C50.8547 242.45 44.2047 229.85 44.2047 212.7C44.2047 164.05 127.855 49.6 172.305 49.6C174.405 49.6 175.105 50.3 175.105 52.05C175.105 53.8 174.405 55.9 173.005 58.35C167.055 69.55 140.105 85.3 140.105 104.2C140.105 116.1 148.505 131.15 162.155 131.15C165.305 131.15 169.155 130.45 173.005 128C186.655 119.95 212.905 81.8 212.905 65ZM359.869 62.2C359.869 52.05 350.419 47.85 342.719 41.2C335.719 34.9 328.019 27.2 319.269 27.2C316.469 27.2 313.669 27.9 310.869 29.65C285.669 44.35 179.619 156.35 179.619 224.95C179.619 238.6 196.069 248.05 204.819 256.8C209.019 261 215.319 263.45 223.369 263.45C241.569 263.45 272.719 250.15 305.269 210.95C308.069 207.8 309.119 203.95 309.119 200.45C309.119 195.55 306.669 191.35 303.169 191.35C301.419 191.35 299.669 192.4 297.569 194.85C269.569 227.4 241.919 240.7 227.569 240.7C219.519 240.7 215.319 237.55 215.319 229.5C215.319 216.2 223.369 196.6 234.919 175.95C273.769 161.95 341.669 123.45 358.819 68.5C359.519 66.05 359.869 63.95 359.869 62.2ZM331.519 70.95C331.519 79.35 292.669 130.45 255.569 143.4C282.519 105.25 315.069 71.3 330.119 69.55C330.469 69.55 330.469 69.55 330.469 69.55C331.169 69.55 331.519 69.9 331.519 70.95ZM442.669 55.55C443.369 44.7 434.969 34.55 413.619 34.55C391.919 34.55 382.119 44 381.419 54.5C380.369 66.4 391.919 79 411.519 79C430.069 79 441.969 67.1 442.669 55.55ZM401.719 195.55C402.069 189.6 400.319 184.35 397.169 184.35C396.119 184.35 395.069 185.05 393.669 186.45C372.669 210.25 336.269 243.5 321.219 243.5C320.169 243.5 319.469 242.1 319.469 240C320.519 226 351.669 170.35 392.269 124.85C395.069 121.7 396.119 119.25 396.469 116.8C397.169 108.75 373.019 95.8 365.319 95.8C361.819 95.8 358.319 97.55 354.119 103.15C307.919 163.7 289.719 200.1 287.969 223.2C286.569 242.1 304.069 262.4 322.269 262.4C345.019 262.4 394.719 212 399.619 203.6C401.019 201.15 401.719 198.35 401.719 195.55ZM513.825 208.15C513.825 203.25 509.275 199.05 505.775 199.05C505.425 199.05 504.725 199.05 504.375 199.4C493.525 206.05 462.375 247 421.775 247C407.775 247 402.175 240.7 402.175 231.25C402.175 227.4 403.225 222.85 404.975 217.95C405.325 217.95 405.675 217.95 406.025 217.95C444.875 217.95 512.075 181.9 512.075 137.45C512.075 125.9 504.375 117.5 500.175 110.85C490.025 95.8 487.575 93.35 477.425 93.35C445.925 94.05 371.025 174.9 371.025 208.15C371.025 232.3 382.225 238.95 389.925 247.7C401.475 260.65 417.575 267.65 429.475 267.65C453.625 267.65 499.125 236.5 513.125 211.65C513.475 210.25 513.825 209.2 513.825 208.15ZM481.975 139.9C481.975 149.35 443.125 192.75 418.975 192.05C428.075 178.75 462.375 138.15 480.225 138.15C481.275 138.15 481.975 138.85 481.975 139.9ZM669.064 193.45C669.064 190.3 668.364 189.25 666.264 189.25C664.864 189.25 663.814 189.6 662.764 191C655.414 201.15 623.914 235.8 611.314 235.8C606.764 236.15 603.614 231.95 603.614 227.4C603.614 214.1 622.514 181.9 658.214 137.45C661.014 133.95 662.414 131.15 662.414 128.7C662.414 121.35 641.414 105.25 634.414 105.25C631.614 105.25 629.164 106.3 626.364 109.1C619.714 116.8 556.014 186.45 531.864 213.05C546.214 192.05 581.914 134.65 585.064 129.4C586.114 127.65 586.464 125.9 586.464 124.5C586.464 117.85 565.464 104.9 558.814 104.9C555.314 104.9 551.814 106.65 548.314 112.25C544.114 118.9 484.964 222.5 479.714 236.85C479.364 237.55 479.014 238.95 479.014 240C479.014 250.15 494.414 261.35 505.614 261.35C512.964 261.35 566.864 186.1 599.064 164.4C585.414 181.2 570.364 210.95 570.364 225.3C570.364 243.85 578.764 256.8 594.164 256.45C625.314 256.45 656.114 223.55 668.364 196.95C669.064 195.55 669.064 194.5 669.064 193.45ZM799.986 109.8C799.986 104.9 797.536 96.5 791.586 96.85C788.786 96.85 772.686 97.55 752.736 97.9C767.436 79 779.336 65 783.886 61.15C787.736 57.65 789.486 54.5 789.486 51.7C789.486 43.65 765.336 28.25 757.986 28.25C755.536 28.25 753.086 29.3 751.686 31.75C746.786 40.5 727.186 67.1 706.186 98.25C705.486 98.25 704.786 98.25 704.436 98.25C692.536 98.25 680.636 97.55 668.736 97.55C664.886 97.55 663.136 99.65 663.136 102.45C663.136 109.45 672.236 121 681.336 121C681.686 121 682.386 121.35 683.086 121.35C685.536 121.35 687.986 121 691.136 121C670.486 152.15 651.236 185.05 643.536 207.8C642.136 212.7 641.086 217.6 641.086 222.5C641.086 230.9 644.236 239.3 653.336 248.05C663.836 258.2 673.286 262.4 682.386 262.4C703.386 262.4 732.786 233.35 746.086 218.65C750.286 214.1 753.786 204.3 753.786 198.35C753.786 195.55 753.086 193.8 751.336 193.8C749.936 193.8 748.186 195.2 745.386 198C732.436 211.65 697.086 245.25 680.986 245.25C674.336 245.25 671.186 241.05 671.186 234.75C671.186 212 707.236 157.75 738.736 115.75C749.236 114.7 760.086 114 769.886 114C778.986 114 787.736 114.7 794.736 116.45C795.436 116.45 795.436 116.45 795.786 116.45C798.586 116.45 799.986 113.3 799.986 109.8ZM853.071 96.15C853.071 87.75 833.821 76.55 825.421 76.55C821.921 76.55 818.421 78.65 814.571 86C775.371 160.55 719.021 224.6 702.571 236.85C698.371 240 696.621 243.5 696.621 246.3C696.621 249.45 698.721 251.9 702.571 251.9C703.971 251.9 706.071 251.55 707.821 250.5C721.471 244.2 737.921 228.45 753.321 210.6C767.671 248.75 786.221 262.4 800.921 262.4C815.621 262.4 826.821 248.75 827.171 233C827.871 168.95 843.971 106.65 847.821 104.2C851.671 101.4 853.071 98.6 853.071 96.15ZM794.971 194.85C794.971 211.65 793.571 225.3 786.921 225.3C778.871 225.3 765.921 205.35 762.771 199.05C775.721 183.3 793.921 159.5 800.921 149.7C796.721 163 794.971 182.6 794.971 194.85Z" fill="white"/>
</svg>
